<svg width="24" height="24" viewBox="0 0 24 24" fill="none" xmlns="http://www.w3.org/2000/svg">
<path d="M8.25 1.5C7.25544 1.5 6.30161 1.89509 5.59835 2.59835C4.89509 3.30161 4.5 4.25544 4.5 5.25V18.75C4.5 19.7446 4.89509 20.6984 5.59835 21.4016C6.30161 22.1049 7.25544 22.5 8.25 22.5H15.75C16.7446 22.5 17.6984 22.1049 18.4017 21.4016C19.1049 20.6984 19.5 19.7446 19.5 18.75V7.992C19.4998 6.99789 19.1049 6.04454 18.402 5.3415L15.6585 2.598C14.9555 1.89515 14.0021 1.50021 13.008 1.5H8.25ZM9.75 12H12V19.5H9.75C9.15326 19.5 8.58097 19.2629 8.15901 18.841C7.73705 18.419 7.5 17.8467 7.5 17.25V14.25C7.5 13.6533 7.73705 13.081 8.15901 12.659C8.58097 12.2371 9.15326 12 9.75 12ZM13.5 12H14.25C14.8467 12 15.419 12.2371 15.841 12.659C16.2629 13.081 16.5 13.6533 16.5 14.25V17.25C16.5 17.8467 16.2629 18.419 15.841 18.841C15.419 19.2629 14.8467 19.5 14.25 19.5H13.5V12Z" fill="white"/>
</svg>
