<svg width="14" height="13" viewBox="0 0 14 13" fill="none" xmlns="http://www.w3.org/2000/svg">
<path fill-rule="evenodd" clip-rule="evenodd" d="M12.1846 0.953341C12.3493 0.884001 12.5297 0.860087 12.7068 0.884085C12.8839 0.908084 13.0514 0.97912 13.1917 1.0898C13.3321 1.20048 13.4402 1.34675 13.5048 1.5134C13.5695 1.68004 13.5883 1.86097 13.5593 2.03734L12.0473 11.2087C11.9006 12.0933 10.9299 12.6007 10.1186 12.16C9.43993 11.7913 8.43193 11.2233 7.52527 10.6307C7.07193 10.334 5.68327 9.38401 5.85393 8.70801C6.0006 8.13001 8.33393 5.95801 9.66726 4.66667C10.1906 4.15934 9.95193 3.86667 9.33393 4.33334C7.79927 5.49201 5.33527 7.25401 4.5206 7.75001C3.80193 8.18734 3.42726 8.26201 2.97926 8.18734C2.16193 8.05134 1.40393 7.84067 0.785265 7.58401C-0.0507349 7.23734 -0.0100682 6.08801 0.784598 5.75334L12.1846 0.953341Z" fill="white"/>
</svg>
