<svg width="48" height="48" viewBox="0 0 48 48" fill="none" xmlns="http://www.w3.org/2000/svg">
<path d="M24 42.2857C34.0989 42.2857 42.2857 34.0989 42.2857 23.9999C42.2857 13.901 34.0989 5.71423 24 5.71423C13.9011 5.71423 5.71429 13.901 5.71429 23.9999C5.71429 34.0989 13.9011 42.2857 24 42.2857Z" stroke="white" stroke-width="2.5" stroke-linecap="round" stroke-linejoin="round"/>
<path d="M24 33.1428C29.0495 33.1428 33.1429 29.0494 33.1429 23.9999C33.1429 18.9505 29.0495 14.8571 24 14.8571C18.9506 14.8571 14.8572 18.9505 14.8572 23.9999C14.8572 29.0494 18.9506 33.1428 24 33.1428Z" stroke="white" stroke-width="2.5" stroke-linecap="round" stroke-linejoin="round"/>
<path d="M30.8572 17.1428L36.5714 11.4285M30.8572 30.857L36.5714 36.5713M17.1429 30.857L11.4286 36.5713M17.1429 17.1428L11.4286 11.4285" stroke="white" stroke-width="2.5" stroke-linecap="round" stroke-linejoin="round"/>
</svg>
