<svg width="48" height="48" viewBox="0 0 48 48" fill="none" xmlns="http://www.w3.org/2000/svg">
<path d="M22.934 41.64C23.2404 41.8733 23.6149 41.9996 24 41.9996C24.3851 41.9996 24.7595 41.8733 25.066 41.64C28.336 39.186 38 31.172 38 22.032V12.172C38.002 11.9177 37.9097 11.6716 37.7409 11.4814C37.5721 11.2911 37.3388 11.1702 37.086 11.142C33.0813 10.7318 29.2431 9.32502 25.922 7.05002L24.702 6.21602C24.4954 6.07412 24.2506 5.99817 24 5.99817C23.7493 5.99817 23.5046 6.07412 23.298 6.21602L22.078 7.05002C18.7568 9.32502 14.9187 10.7318 10.914 11.142C10.6612 11.1702 10.4278 11.2911 10.259 11.4814C10.0902 11.6716 9.99791 11.9177 9.99997 12.172V22.032C9.99997 31.172 19.664 39.186 22.934 41.636" stroke="white" stroke-width="2.5" stroke-linecap="round" stroke-linejoin="round"/>
</svg>
