<svg width="48" height="48" viewBox="0 0 48 48" fill="none" xmlns="http://www.w3.org/2000/svg">
<path d="M4 15.25C4 13.5924 4.65848 12.0027 5.83058 10.8306C7.00269 9.65848 8.5924 9 10.25 9H37.75C39.4076 9 40.9973 9.65848 42.1694 10.8306C43.3415 12.0027 44 13.5924 44 15.25V32.75C44 34.4076 43.3415 35.9973 42.1694 37.1694C40.9973 38.3415 39.4076 39 37.75 39H10.25C8.5924 39 7.00269 38.3415 5.83058 37.1694C4.65848 35.9973 4 34.4076 4 32.75V15.25ZM10.25 11.5C9.25544 11.5 8.30161 11.8951 7.59835 12.5983C6.89509 13.3016 6.5 14.2554 6.5 15.25V18.5H41.5V15.25C41.5 14.2554 41.1049 13.3016 40.4016 12.5983C39.6984 11.8951 38.7446 11.5 37.75 11.5H10.25ZM6.5 32.75C6.5 33.7446 6.89509 34.6984 7.59835 35.4016C8.30161 36.1049 9.25544 36.5 10.25 36.5H37.75C38.7446 36.5 39.6984 36.1049 40.4016 35.4016C41.1049 34.6984 41.5 33.7446 41.5 32.75V21H6.5V32.75ZM31.25 29.5C30.9185 29.5 30.6005 29.6317 30.3661 29.8661C30.1317 30.1005 30 30.4185 30 30.75C30 31.0815 30.1317 31.3995 30.3661 31.6339C30.6005 31.8683 30.9185 32 31.25 32H36.75C37.0815 32 37.3995 31.8683 37.6339 31.6339C37.8683 31.3995 38 31.0815 38 30.75C38 30.4185 37.8683 30.1005 37.6339 29.8661C37.3995 29.6317 37.0815 29.5 36.75 29.5H31.25Z" fill="white"/>
</svg>
