<svg width="48" height="48" viewBox="0 0 48 48" fill="none" xmlns="http://www.w3.org/2000/svg">
<path d="M5.5 24C5.5 28.9065 7.4491 33.6121 10.9185 37.0815C14.3879 40.5509 19.0935 42.5 24 42.5C28.9065 42.5 33.6121 40.5509 37.0815 37.0815C40.5509 33.6121 42.5 28.9065 42.5 24H30.016C30.016 25.5955 29.3822 27.1257 28.254 28.254C27.1257 29.3822 25.5955 30.016 24 30.016C22.4045 30.016 20.8743 29.3822 19.746 28.254C18.6178 27.1257 17.984 25.5955 17.984 24H5.5ZM24 5.5H42.251V17.984H24V5.5Z" stroke="white" stroke-width="2.5" stroke-linecap="round" stroke-linejoin="round"/>
<path d="M11.742 17.984C15.1894 17.984 17.984 15.1894 17.984 11.742C17.984 8.29464 15.1894 5.5 11.742 5.5C8.29464 5.5 5.5 8.29464 5.5 11.742C5.5 15.1894 8.29464 17.984 11.742 17.984Z" stroke="white" stroke-width="2.5" stroke-linecap="round" stroke-linejoin="round"/>
</svg>
