<svg width="48" height="48" viewBox="0 0 48 48" fill="none" xmlns="http://www.w3.org/2000/svg">
<path d="M34.06 26.696C35.142 26.198 35.684 25.95 35.842 25.702C36 25.456 36 25.062 36 24.278V23.722C36 22.936 36 22.544 35.842 22.298C35.684 22.05 35.142 21.802 34.06 21.304C32.454 20.564 31.422 18.95 31.478 17.258C31.52 15.966 31.542 15.32 31.4 15.076C31.26 14.83 30.92 14.644 30.244 14.272L29.598 13.918C28.938 13.558 28.61 13.378 28.33 13.392C28.05 13.404 27.57 13.728 26.616 14.376C25.8413 14.8915 24.9315 15.1666 24.001 15.1666C23.0705 15.1666 22.1607 14.8915 21.386 14.376C20.43 13.728 19.954 13.404 19.672 13.39C19.392 13.378 19.062 13.558 18.404 13.918L17.758 14.272C17.08 14.644 16.742 14.83 16.602 15.074C16.462 15.32 16.482 15.966 16.522 17.258C16.578 18.95 15.546 20.566 13.942 21.304C12.858 21.802 12.316 22.05 12.158 22.298C12 22.544 12 22.938 12 23.722V24.278C12 25.064 12 25.458 12.158 25.702C12.316 25.95 12.858 26.198 13.94 26.696C15.546 27.436 16.578 29.05 16.522 30.742C16.48 32.034 16.458 32.68 16.6 32.924C16.74 33.17 17.08 33.356 17.758 33.728L18.402 34.082C19.062 34.442 19.39 34.622 19.67 34.61C19.95 34.598 20.43 34.272 21.384 33.624C22.1591 33.1076 23.0696 32.832 24.001 32.832C24.9324 32.832 25.8429 33.1076 26.618 33.624C27.572 34.272 28.05 34.596 28.332 34.608C28.612 34.622 28.942 34.442 29.6 34.082L30.244 33.728C30.924 33.356 31.264 33.17 31.404 32.924C31.544 32.68 31.522 32.034 31.48 30.742C31.424 29.05 32.454 27.434 34.06 26.696Z" stroke="white" stroke-width="2.5" stroke-linecap="round" stroke-linejoin="round"/>
<path d="M24 27.5C25.933 27.5 27.5 25.933 27.5 24C27.5 22.067 25.933 20.5 24 20.5C22.067 20.5 20.5 22.067 20.5 24C20.5 25.933 22.067 27.5 24 27.5Z" stroke="white" stroke-width="2.5" stroke-linecap="round" stroke-linejoin="round"/>
<path d="M38 4.00001V9.71801C34.2652 6.04768 29.2364 3.99381 24 4.00001C12.954 4.00001 4 12.954 4 24C3.99821 26.7528 4.5647 29.4763 5.664 32M10 44V38.282C13.7348 41.9523 18.7636 44.0062 24 44C35.046 44 44 35.046 44 24C44.0018 21.2472 43.4353 18.5237 42.336 16" stroke="white" stroke-width="2.5" stroke-linecap="round" stroke-linejoin="round"/>
</svg>
