<svg width="115" height="149" viewBox="0 0 115 149" fill="none" xmlns="http://www.w3.org/2000/svg">
<path d="M20 33C20 27.4772 23.6985 23 28.2609 23H87.7391C92.3015 23 96 27.4772 96 33C96 38.5228 92.3015 43 87.7391 43H28.2609C23.6985 43 20 38.5228 20 33Z" fill="white"/>
<path d="M31.8059 29.9751L29.1442 37.8692H27L30.6364 28.3466H32.0009L31.8059 29.9751ZM34.0173 37.8692L31.3489 29.9751L31.1338 28.3466H32.5117L36.1683 37.8692H34.0173ZM33.8964 34.3244V35.8613H28.7275V34.3244H33.8964Z" fill="black"/>
<path d="M39.9592 36.5285C40.1967 36.5285 40.4073 36.4848 40.5911 36.3976C40.7748 36.3061 40.9182 36.1796 41.0212 36.0183C41.1288 35.8526 41.1848 35.6586 41.1893 35.4362H43.0108C43.0064 35.9333 42.8697 36.3758 42.6008 36.7639C42.332 37.1476 41.9712 37.4506 41.5186 37.673C41.0661 37.891 40.5597 38 39.9996 38C39.435 38 38.942 37.9084 38.5208 37.7253C38.1041 37.5422 37.7568 37.2893 37.479 36.9666C37.2011 36.6396 36.9928 36.2603 36.8539 35.8286C36.7149 35.3926 36.6455 34.9261 36.6455 34.429V34.2394C36.6455 33.738 36.7149 33.2714 36.8539 32.8398C36.9928 32.4037 37.2011 32.0244 37.479 31.7018C37.7568 31.3748 38.1041 31.1197 38.5208 30.9366C38.9376 30.7534 39.426 30.6619 39.9861 30.6619C40.5821 30.6619 41.1041 30.7731 41.5523 30.9954C42.0048 31.2178 42.3588 31.5361 42.6143 31.9503C42.8742 32.3601 43.0064 32.8463 43.0108 33.4088H41.1893C41.1848 33.1733 41.1333 32.9597 41.0347 32.7678C40.9406 32.576 40.8017 32.4234 40.618 32.31C40.4387 32.1923 40.2169 32.1334 39.9525 32.1334C39.6702 32.1334 39.4394 32.1923 39.2602 32.31C39.0809 32.4234 38.942 32.5803 38.8435 32.7809C38.7449 32.9771 38.6754 33.2017 38.6351 33.4545C38.5992 33.7031 38.5813 33.9647 38.5813 34.2394V34.429C38.5813 34.7037 38.5992 34.9675 38.6351 35.2204C38.6709 35.4733 38.7381 35.6978 38.8367 35.894C38.9398 36.0903 39.0809 36.245 39.2602 36.3584C39.4394 36.4718 39.6724 36.5285 39.9592 36.5285Z" fill="black"/>
<path d="M47.6958 30.7927V32.1269H43.4612V30.7927H47.6958ZM44.5098 29.0464H46.4456V35.7371C46.4456 35.942 46.4725 36.099 46.5262 36.208C46.5845 36.317 46.6696 36.3933 46.7817 36.4369C46.8937 36.4761 47.0348 36.4957 47.2051 36.4957C47.3261 36.4957 47.4337 36.4914 47.5278 36.4827C47.6263 36.4696 47.7092 36.4565 47.7765 36.4434L47.7832 37.83C47.6174 37.8823 47.4381 37.9237 47.2454 37.9542C47.0528 37.9847 46.8399 38 46.6069 38C46.1812 38 45.8093 37.9324 45.4911 37.7973C45.1774 37.6577 44.9355 37.4354 44.7652 37.1302C44.5949 36.8249 44.5098 36.4238 44.5098 35.9267V29.0464Z" fill="black"/>
<path d="M50.8415 30.7927V37.8692H48.899V30.7927H50.8415ZM48.778 28.9483C48.778 28.6736 48.8766 28.4469 49.0737 28.2681C49.2709 28.0894 49.5353 28 49.8669 28C50.194 28 50.4561 28.0894 50.6533 28.2681C50.8549 28.4469 50.9558 28.6736 50.9558 28.9483C50.9558 29.223 50.8549 29.4497 50.6533 29.6285C50.4561 29.8073 50.194 29.8967 49.8669 29.8967C49.5353 29.8967 49.2709 29.8073 49.0737 29.6285C48.8766 29.4497 48.778 29.223 48.778 28.9483Z" fill="black"/>
<path d="M54.9148 36.4957L56.528 30.7927H58.5512L56.0978 37.8692H54.8745L54.9148 36.4957ZM53.8057 30.7927L55.4256 36.5023L55.4592 37.8692H54.2292L51.7758 30.7927H53.8057Z" fill="black"/>
<path d="M63.2361 36.2734V33.121C63.2361 32.8943 63.198 32.7002 63.1219 32.5389C63.0457 32.3732 62.9269 32.2446 62.7656 32.153C62.6088 32.0615 62.4049 32.0157 62.1539 32.0157C61.9389 32.0157 61.7529 32.0528 61.5961 32.1269C61.4392 32.1966 61.3182 32.2991 61.2331 32.4343C61.1479 32.5651 61.1054 32.7199 61.1054 32.8986H59.1696C59.1696 32.5978 59.2413 32.3122 59.3846 32.0419C59.528 31.7715 59.7364 31.5339 60.0098 31.329C60.2831 31.1197 60.608 30.9562 60.9844 30.8385C61.3653 30.7207 61.791 30.6619 62.2615 30.6619C62.8261 30.6619 63.328 30.7534 63.7671 30.9366C64.2063 31.1197 64.5513 31.3944 64.8023 31.7606C65.0577 32.1269 65.1854 32.5847 65.1854 33.1341V36.1622C65.1854 36.5503 65.21 36.8685 65.2593 37.1171C65.3086 37.3612 65.3803 37.5749 65.4744 37.758V37.8692H63.5184C63.4243 37.6773 63.3526 37.4375 63.3033 37.1498C63.2585 36.8576 63.2361 36.5655 63.2361 36.2734ZM63.4915 33.5592L63.505 34.6252H62.4228C62.1674 34.6252 61.9456 34.6536 61.7574 34.7103C61.5692 34.767 61.4146 34.8476 61.2936 34.9523C61.1726 35.0525 61.083 35.1703 61.0247 35.3054C60.9709 35.4406 60.9441 35.5888 60.9441 35.7502C60.9441 35.9115 60.9821 36.0576 61.0583 36.1884C61.1345 36.3148 61.2443 36.4151 61.3877 36.4892C61.5311 36.559 61.6991 36.5939 61.8918 36.5939C62.1831 36.5939 62.4363 36.5372 62.6513 36.4238C62.8664 36.3104 63.0322 36.1709 63.1487 36.0052C63.2697 35.8395 63.3325 35.6826 63.3369 35.5343L63.8478 36.3322C63.7761 36.511 63.6775 36.6963 63.552 36.8882C63.431 37.08 63.2765 37.261 63.0882 37.431C62.9 37.5967 62.6737 37.734 62.4094 37.843C62.145 37.9477 61.8313 38 61.4683 38C61.0068 38 60.5878 37.9106 60.2114 37.7319C59.8395 37.5487 59.5437 37.298 59.3242 36.9797C59.1091 36.6571 59.0015 36.2908 59.0015 35.881C59.0015 35.5104 59.0732 35.1812 59.2166 34.8934C59.36 34.6056 59.5706 34.3636 59.8484 34.1674C60.1307 33.9669 60.4825 33.8164 60.9037 33.7162C61.3249 33.6115 61.8134 33.5592 62.369 33.5592H63.4915Z" fill="black"/>
<path d="M70.24 30.7927V32.1269H66.0054V30.7927H70.24ZM67.054 29.0464H68.9898V35.7371C68.9898 35.942 69.0167 36.099 69.0705 36.208C69.1287 36.317 69.2139 36.3933 69.3259 36.4369C69.4379 36.4761 69.5791 36.4957 69.7493 36.4957C69.8703 36.4957 69.9779 36.4914 70.072 36.4827C70.1706 36.4696 70.2535 36.4565 70.3207 36.4434L70.3274 37.83C70.1616 37.8823 69.9824 37.9237 69.7897 37.9542C69.597 37.9847 69.3841 38 69.1511 38C68.7254 38 68.3535 37.9324 68.0353 37.7973C67.7217 37.6577 67.4797 37.4354 67.3094 37.1302C67.1391 36.8249 67.054 36.4238 67.054 35.9267V29.0464Z" fill="black"/>
<path d="M73.3857 30.7927V37.8692H71.4432V30.7927H73.3857ZM71.3222 28.9483C71.3222 28.6736 71.4208 28.4469 71.618 28.2681C71.8151 28.0894 72.0795 28 72.4111 28C72.7382 28 73.0004 28.0894 73.1975 28.2681C73.3992 28.4469 73.5 28.6736 73.5 28.9483C73.5 29.223 73.3992 29.4497 73.1975 29.6285C73.0004 29.8073 72.7382 29.8967 72.4111 29.8967C72.0795 29.8967 71.8151 29.8073 71.618 29.6285C71.4208 29.4497 71.3222 29.223 71.3222 28.9483Z" fill="black"/>
<path d="M74.6763 34.4029V34.2655C74.6763 33.7467 74.7525 33.2692 74.9048 32.8332C75.0572 32.3928 75.279 32.0113 75.5703 31.6887C75.8615 31.366 76.22 31.1153 76.6457 30.9366C77.0714 30.7534 77.5598 30.6619 78.111 30.6619C78.6622 30.6619 79.1529 30.7534 79.583 30.9366C80.0132 31.1153 80.374 31.366 80.6652 31.6887C80.961 32.0113 81.185 32.3928 81.3374 32.8332C81.4897 33.2692 81.5659 33.7467 81.5659 34.2655V34.4029C81.5659 34.9174 81.4897 35.3948 81.3374 35.8352C81.185 36.2712 80.961 36.6527 80.6652 36.9797C80.374 37.3024 80.0155 37.5531 79.5898 37.7319C79.1641 37.9106 78.6756 38 78.1245 38C77.5733 38 77.0826 37.9106 76.6524 37.7319C76.2267 37.5531 75.866 37.3024 75.5703 36.9797C75.279 36.6527 75.0572 36.2712 74.9048 35.8352C74.7525 35.3948 74.6763 34.9174 74.6763 34.4029ZM76.6121 34.2655V34.4029C76.6121 34.6994 76.639 34.9762 76.6928 35.2335C76.7465 35.4907 76.8317 35.7175 76.9482 35.9137C77.0692 36.1055 77.226 36.2559 77.4187 36.3649C77.6114 36.4739 77.8466 36.5285 78.1245 36.5285C78.3933 36.5285 78.6241 36.4739 78.8168 36.3649C79.0095 36.2559 79.1641 36.1055 79.2806 35.9137C79.3971 35.7175 79.4822 35.4907 79.536 35.2335C79.5942 34.9762 79.6234 34.6994 79.6234 34.4029V34.2655C79.6234 33.9778 79.5942 33.7074 79.536 33.4545C79.4822 33.1973 79.3948 32.9706 79.2738 32.7744C79.1573 32.5738 79.0027 32.4168 78.8101 32.3035C78.6174 32.1901 78.3844 32.1334 78.111 32.1334C77.8377 32.1334 77.6047 32.1901 77.412 32.3035C77.2238 32.4168 77.0692 32.5738 76.9482 32.7744C76.8317 32.9706 76.7465 33.1973 76.6928 33.4545C76.639 33.7074 76.6121 33.9778 76.6121 34.2655Z" fill="black"/>
<path d="M84.6511 32.3035V37.8692H82.7153V30.7927H84.5301L84.6511 32.3035ZM84.3688 34.0824H83.8445C83.8445 33.5592 83.914 33.0883 84.0529 32.6697C84.1918 32.2468 84.3867 31.8871 84.6377 31.5906C84.8886 31.2897 85.1866 31.0608 85.5317 30.9039C85.8812 30.7425 86.271 30.6619 86.7012 30.6619C87.0418 30.6619 87.3532 30.7098 87.6355 30.8058C87.9178 30.9017 88.1598 31.0543 88.3614 31.2636C88.5676 31.4729 88.7244 31.7497 88.832 32.0942C88.944 32.4386 89 32.8594 89 33.3564V37.8692H87.0507V33.3499C87.0507 33.036 87.0059 32.7918 86.9163 32.6174C86.8267 32.443 86.6945 32.3209 86.5197 32.2511C86.3494 32.177 86.1388 32.14 85.8879 32.14C85.628 32.14 85.4017 32.1901 85.209 32.2904C85.0208 32.3907 84.864 32.5302 84.7385 32.709C84.6175 32.8834 84.5257 33.0883 84.4629 33.3237C84.4002 33.5592 84.3688 33.8121 84.3688 34.0824Z" fill="black"/>
<path d="M20 91C20 88.2386 21.8493 86 24.1304 86H91.8696C94.1507 86 96 88.2386 96 91C96 93.7614 94.1507 96 91.8696 96H24.1304C21.8493 96 20 93.7614 20 91Z" fill="white" fill-opacity="0.2"/>
<path d="M20 105C20 102.239 21.8493 100 24.1304 100H91.8696C94.1507 100 96 102.239 96 105C96 107.761 94.1507 110 91.8696 110H24.1304C21.8493 110 20 107.761 20 105Z" fill="white" fill-opacity="0.2"/>
<path d="M20 119C20 116.239 21.8493 114 24.1304 114H91.8696C94.1507 114 96 116.239 96 119C96 121.761 94.1507 124 91.8696 124H24.1304C21.8493 124 20 121.761 20 119Z" fill="white" fill-opacity="0.2"/>
<rect x="1" y="1" width="113" height="147" rx="19" stroke="white" stroke-opacity="0.2" stroke-width="2"/>
<rect x="11.5" y="16.5" width="92" height="121" rx="11.5" stroke="white"/>
<path d="M92.9928 64.6753L92.9827 64.6801L92.9232 64.7323L92.9049 64.7413L92.8903 64.7411L92.8127 64.7256C92.8015 64.7252 92.7942 64.7289 92.7908 64.7367L92.7895 64.7474L92.8839 65.1652L92.8939 65.1832L92.9069 65.1932L93.0265 65.2377L93.042 65.2377L93.0526 65.2308L93.1339 65.1324L93.1413 65.1138L93.1408 65.0963L93.0139 64.6883C93.0085 64.6787 93.0015 64.6743 92.9928 64.6753ZM93.2195 64.4976L93.2075 64.5029L93.0528 64.6406L93.0458 64.6528L93.0457 64.6642L93.1744 65.0749L93.1823 65.0852L93.1919 65.0899L93.4101 65.1277C93.4232 65.1277 93.4318 65.1226 93.436 65.1125L93.4363 65.0979L93.2445 64.5136C93.2382 64.5029 93.2299 64.4976 93.2195 64.4976ZM92.5294 64.6846C92.5244 64.6831 92.5191 64.6836 92.5146 64.686C92.51 64.6884 92.5065 64.6925 92.5049 64.6973L92.5027 64.7124L92.6288 65.3143C92.6325 65.3257 92.6401 65.332 92.6514 65.3331L92.6654 65.3273L92.8355 65.1854L92.843 65.1751L92.8441 65.1634L92.7492 64.7437L92.7432 64.7329L92.7309 64.7258L92.5294 64.6846Z" fill="white"/>
<path d="M84.5032 44.9422C85.1163 44.7778 85.7689 44.8528 86.3287 45.1519C86.8886 45.451 87.3137 45.9518 87.5178 46.5528L87.5651 46.7099L88.7569 51.158L94.1701 50.3339C95.1086 50.191 96.0673 50.3865 96.8749 50.8856C97.6825 51.3846 98.2862 52.1545 98.5783 53.0578L98.6357 53.2526L98.7172 53.5569C99.2551 55.5645 98.9906 57.7026 97.9796 59.5186C96.9686 61.3346 95.2906 62.6858 93.3008 63.2863L93.0603 63.3548L92.4093 63.5293C91.0207 63.9013 89.5576 63.8923 88.1737 63.5033C86.7898 63.1142 85.5364 62.3594 84.5451 61.3183L84.3536 61.1098L80.1373 56.355C79.6032 55.7527 79.6119 54.7535 80.334 54.2028C81.2309 53.5204 82.1674 53.1866 83.288 53.4237C83.5317 53.4757 83.778 53.5526 84.0268 53.6543L84.2785 53.7629L82.7354 48.004C82.5638 47.3636 82.6537 46.6812 82.9852 46.107C83.3167 45.5328 83.8628 45.1138 84.5032 44.9422ZM85.0208 46.874C84.9078 46.9043 84.8089 46.9732 84.7415 47.0689C84.674 47.1645 84.6423 47.2808 84.6517 47.3974L84.6673 47.4864L86.8673 55.6968C86.9207 55.8968 86.9107 56.1085 86.8387 56.3026C86.7667 56.4967 86.6363 56.6637 86.4653 56.7805C86.2944 56.8973 86.0914 56.9582 85.8844 56.9547C85.6774 56.9512 85.4766 56.8836 85.3097 56.7612L84.8836 56.454L84.4993 56.1905C83.7691 55.706 83.2685 55.4643 82.8743 55.3804C82.6396 55.3249 82.3937 55.3414 82.1685 55.4277L82.0375 55.4835L85.8503 59.7832C86.5622 60.5858 87.4762 61.1828 88.4973 61.5121C89.5183 61.8414 90.609 61.8909 91.6556 61.6555L91.8917 61.5974L92.5427 61.423C94.0422 61.0212 95.3276 60.054 96.1289 58.7244C96.9302 57.3948 97.185 55.8064 96.8397 54.2929L96.7853 54.0745L96.7038 53.7702C96.5836 53.3214 96.3108 52.9283 95.9323 52.6587C95.5538 52.3891 95.0932 52.2597 94.6297 52.2927L94.4709 52.3104L89.058 53.1355C88.5984 53.2055 88.1288 53.1133 87.7299 52.8746C87.3309 52.6359 87.0276 52.2658 86.872 51.8277L86.8251 51.6757L85.6332 47.2276C85.5989 47.0995 85.5151 46.9903 85.4003 46.924C85.2854 46.8577 85.1489 46.8397 85.0208 46.874ZM80.2259 50.2294C80.4821 50.1607 80.755 50.1967 80.9847 50.3293C81.2144 50.4619 81.382 50.6803 81.4506 50.9365C81.5193 51.1927 81.4833 51.4656 81.3507 51.6953C81.2181 51.925 80.9997 52.0926 80.7435 52.1612L79.7776 52.4201C79.5214 52.4887 79.2485 52.4528 79.0188 52.3202C78.7891 52.1875 78.6215 51.9691 78.5529 51.713C78.4842 51.4568 78.5202 51.1838 78.6528 50.9541C78.7854 50.7244 79.0038 50.5568 79.26 50.4882L80.2259 50.2294ZM91.5582 46.1576C91.8045 46.0919 92.0665 46.1228 92.2908 46.2438C92.5151 46.3648 92.6847 46.567 92.765 46.8089C92.8453 47.0508 92.8302 47.3142 92.7228 47.5453C92.6153 47.7765 92.4237 47.9579 92.187 48.0524L92.0758 48.0895L91.1099 48.3483C90.8636 48.414 90.6016 48.3832 90.3773 48.2621C90.153 48.1411 89.9833 47.939 89.903 47.6971C89.8228 47.4552 89.8379 47.1917 89.9453 46.9606C90.0527 46.7295 90.2444 46.5481 90.4811 46.4535L90.5923 46.4165L91.5582 46.1576ZM79.6905 45.4998L80.9153 46.2069C81.14 46.3419 81.3028 46.5598 81.3684 46.8137C81.4341 47.0675 81.3974 47.337 81.2663 47.5641C81.1352 47.7912 80.9202 47.9577 80.6675 48.0277C80.4148 48.0978 80.1448 48.0658 79.9154 47.9387L78.6907 47.2316C78.4659 47.0965 78.3032 46.8786 78.2375 46.6248C78.1719 46.3709 78.2085 46.1015 78.3396 45.8744C78.4707 45.6473 78.6858 45.4808 78.9385 45.4107C79.1911 45.3407 79.4612 45.3727 79.6905 45.4998ZM90.3157 42.6528C90.5453 42.7854 90.7129 43.0038 90.7815 43.2599C90.8501 43.516 90.8142 43.7889 90.6817 44.0186L89.9746 45.2433C89.9102 45.3595 89.8233 45.4616 89.7191 45.5438C89.6148 45.626 89.4952 45.6866 89.3672 45.7221C89.2392 45.7576 89.1055 45.7672 88.9738 45.7505C88.8421 45.7337 88.715 45.6909 88.6 45.6245C88.485 45.5581 88.3844 45.4695 88.304 45.3638C88.2236 45.2581 88.1651 45.1374 88.1319 45.0089C88.0986 44.8803 88.0913 44.7464 88.1103 44.615C88.1294 44.4836 88.1744 44.3573 88.2428 44.2435L88.9499 43.0187C89.0825 42.7891 89.3009 42.6216 89.557 42.553C89.8132 42.4843 90.0861 42.5202 90.3157 42.6528Z" fill="white"/>
</svg>
