<svg width="115" height="149" viewBox="0 0 115 149" fill="none" xmlns="http://www.w3.org/2000/svg">
<path fill-rule="evenodd" clip-rule="evenodd" d="M99 2H16C8.26801 2 2 8.26801 2 16V133C2 140.732 8.26801 147 16 147H99C106.732 147 113 140.732 113 133V16C113 8.26801 106.732 2 99 2ZM16 0C7.16344 0 0 7.16344 0 16V133C0 141.837 7.16344 149 16 149H99C107.837 149 115 141.837 115 133V16C115 7.16344 107.837 0 99 0H16Z" fill="white" fill-opacity="0.2"/>
<path d="M12 33C12 27.4772 16.4772 23 22 23H94C99.5229 23 104 27.4772 104 33C104 38.5228 99.5229 43 94 43H22C16.4772 43 12 38.5228 12 33Z" fill="white"/>
<path d="M12 86C12 83.2386 14.2386 81 17 81H99C101.761 81 104 83.2386 104 86C104 88.7614 101.761 91 99 91H17C14.2386 91 12 88.7614 12 86Z" fill="white" fill-opacity="0.2"/>
<path d="M12 100C12 97.2386 14.2386 95 17 95H99C101.761 95 104 97.2386 104 100C104 102.761 101.761 105 99 105H17C14.2386 105 12 102.761 12 100Z" fill="white" fill-opacity="0.2"/>
<path d="M12 114C12 111.239 14.2386 109 17 109H99C101.761 109 104 111.239 104 114C104 116.761 101.761 119 99 119H17C14.2386 119 12 116.761 12 114Z" fill="white" fill-opacity="0.2"/>
<path d="M12 128C12 125.239 14.2386 123 17 123H99C101.761 123 104 125.239 104 128C104 130.761 101.761 133 99 133H17C14.2386 133 12 130.761 12 128Z" fill="white" fill-opacity="0.2"/>
<path d="M35 28H36.7268V35.8338L36.553 37.3421H35V28ZM40.8341 33.9848V34.1125C40.8341 34.6031 40.7821 35.0532 40.6782 35.4627C40.5783 35.8723 40.4224 36.2271 40.2105 36.5271C39.9987 36.8231 39.7348 37.0542 39.4191 37.2205C39.1073 37.3827 38.7395 37.4638 38.3158 37.4638C37.9201 37.4638 37.5763 37.3827 37.2845 37.2205C36.9967 37.0583 36.7548 36.8292 36.559 36.5332C36.3631 36.2372 36.2052 35.8905 36.0853 35.4932C35.9654 35.0958 35.8754 34.6619 35.8155 34.1916V33.9118C35.8754 33.4415 35.9654 33.0076 36.0853 32.6102C36.2052 32.2129 36.3631 31.8662 36.559 31.5702C36.7548 31.2742 36.9967 31.0451 37.2845 30.8829C37.5723 30.7207 37.9121 30.6396 38.3038 30.6396C38.7315 30.6396 39.1033 30.7228 39.4191 30.889C39.7388 31.0512 40.0027 31.2823 40.2105 31.5824C40.4224 31.8784 40.5783 32.2311 40.6782 32.6406C40.7821 33.0461 40.8341 33.4942 40.8341 33.9848ZM39.1073 34.1125V33.9848C39.1073 33.7172 39.0873 33.4658 39.0473 33.2306C39.0113 32.9914 38.9474 32.7826 38.8554 32.6042C38.7635 32.4217 38.6376 32.2777 38.4777 32.1723C38.3218 32.0669 38.1199 32.0142 37.8721 32.0142C37.6362 32.0142 37.4364 32.0547 37.2725 32.1358C37.1086 32.2169 36.9727 32.3305 36.8648 32.4764C36.7608 32.6224 36.6829 32.7968 36.6309 32.9995C36.5789 33.1982 36.547 33.4171 36.535 33.6564V34.4531C36.547 34.7734 36.5989 35.0573 36.6909 35.3046C36.7868 35.5479 36.9307 35.7405 37.1226 35.8824C37.3185 36.0203 37.5723 36.0892 37.8841 36.0892C38.1279 36.0892 38.3298 36.0405 38.4897 35.9432C38.6496 35.8459 38.7735 35.7081 38.8614 35.5297C38.9534 35.3512 39.0173 35.1424 39.0533 34.9032C39.0893 34.6599 39.1073 34.3964 39.1073 34.1125Z" fill="black"/>
<path d="M45.7448 35.7669V30.7613H47.4717V37.3421H45.8468L45.7448 35.7669ZM45.9367 34.4166L46.4464 34.4045C46.4464 34.8424 46.3964 35.2499 46.2965 35.627C46.1965 36 46.0466 36.3244 45.8468 36.6001C45.6469 36.8718 45.3951 37.0846 45.0913 37.2387C44.7875 37.3887 44.4297 37.4638 44.018 37.4638C43.7022 37.4638 43.4104 37.4192 43.1426 37.33C42.8787 37.2367 42.6509 37.0928 42.459 36.8981C42.2712 36.6994 42.1233 36.446 42.0153 36.1379C41.9114 35.8256 41.8594 35.4506 41.8594 35.0127V30.7613H43.5863V35.0248C43.5863 35.2195 43.6083 35.3837 43.6522 35.5175C43.7002 35.6513 43.7662 35.7608 43.8501 35.8459C43.934 35.9311 44.032 35.9919 44.1439 36.0284C44.2598 36.0649 44.3877 36.0831 44.5276 36.0831C44.8834 36.0831 45.1632 36.0101 45.3671 35.8642C45.575 35.7182 45.7209 35.5195 45.8048 35.2681C45.8927 35.0127 45.9367 34.7288 45.9367 34.4166Z" fill="black"/>
<path d="M50.7155 36.6001L52.4364 30.7613H54.2891L51.6809 38.3335C51.6249 38.4997 51.549 38.6782 51.453 38.8687C51.3611 39.0593 51.2352 39.2397 51.0753 39.41C50.9194 39.5844 50.7215 39.7263 50.4817 39.8358C50.2458 39.9453 49.956 40 49.6123 40C49.4484 40 49.3145 39.9899 49.2105 39.9696C49.1066 39.9493 48.9827 39.9209 48.8388 39.8844V38.6011C48.8827 38.6011 48.9287 38.6011 48.9767 38.6011C49.0247 38.6052 49.0706 38.6072 49.1146 38.6072C49.3424 38.6072 49.5283 38.5808 49.6722 38.5281C49.8161 38.4754 49.932 38.3943 50.02 38.2848C50.1079 38.1794 50.1779 38.0416 50.2298 37.8713L50.7155 36.6001ZM49.996 30.7613L51.4051 35.5297L51.6509 37.3847L50.4757 37.5124L48.1432 30.7613H49.996Z" fill="black"/>
<path d="M59.7275 32.1662V37.3421H58.0007V30.7613H59.6196L59.7275 32.1662ZM59.4757 33.8206H59.008C59.008 33.334 59.07 32.8961 59.1939 32.5068C59.3178 32.1135 59.4917 31.779 59.7155 31.5033C59.9394 31.2235 60.2052 31.0106 60.513 30.8647C60.8248 30.7146 61.1726 30.6396 61.5563 30.6396C61.8601 30.6396 62.1379 30.6842 62.3897 30.7734C62.6416 30.8626 62.8574 31.0046 63.0373 31.1992C63.2212 31.3938 63.3611 31.6513 63.457 31.9716C63.557 32.2919 63.6069 32.6832 63.6069 33.1455V37.3421H61.8681V33.1394C61.8681 32.8474 61.8281 32.6204 61.7482 32.4582C61.6682 32.296 61.5503 32.1825 61.3944 32.1176C61.2425 32.0487 61.0546 32.0142 60.8308 32.0142C60.5989 32.0142 60.3971 32.0608 60.2252 32.1541C60.0573 32.2473 59.9174 32.3771 59.8055 32.5433C59.6975 32.7055 59.6156 32.8961 59.5596 33.1151C59.5037 33.334 59.4757 33.5692 59.4757 33.8206Z" fill="black"/>
<path d="M64.6442 34.1186V33.9909C64.6442 33.5084 64.7122 33.0644 64.8481 32.6589C64.984 32.2494 65.1819 31.8946 65.4417 31.5945C65.7015 31.2945 66.0213 31.0613 66.4011 30.8951C66.7808 30.7248 67.2165 30.6396 67.7082 30.6396C68.1999 30.6396 68.6376 30.7248 69.0213 30.8951C69.4051 31.0613 69.7268 31.2945 69.9867 31.5945C70.2505 31.8946 70.4504 32.2494 70.5863 32.6589C70.7222 33.0644 70.7901 33.5084 70.7901 33.9909V34.1186C70.7901 34.5971 70.7222 35.0411 70.5863 35.4506C70.4504 35.8561 70.2505 36.2108 69.9867 36.515C69.7268 36.815 69.4071 37.0482 69.0273 37.2144C68.6476 37.3806 68.2119 37.4638 67.7202 37.4638C67.2285 37.4638 66.7908 37.3806 66.4071 37.2144C66.0273 37.0482 65.7055 36.815 65.4417 36.515C65.1819 36.2108 64.984 35.8561 64.8481 35.4506C64.7122 35.0411 64.6442 34.5971 64.6442 34.1186ZM66.3711 33.9909V34.1186C66.3711 34.3943 66.3951 34.6518 66.443 34.891C66.491 35.1303 66.567 35.3411 66.6709 35.5236C66.7788 35.702 66.9187 35.8419 67.0906 35.9432C67.2625 36.0446 67.4724 36.0953 67.7202 36.0953C67.96 36.0953 68.1659 36.0446 68.3378 35.9432C68.5097 35.8419 68.6476 35.702 68.7515 35.5236C68.8554 35.3411 68.9314 35.1303 68.9793 34.891C69.0313 34.6518 69.0573 34.3943 69.0573 34.1186V33.9909C69.0573 33.7233 69.0313 33.4719 68.9793 33.2367C68.9314 32.9975 68.8534 32.7866 68.7455 32.6042C68.6416 32.4176 68.5037 32.2717 68.3318 32.1662C68.1599 32.0608 67.952 32.0081 67.7082 32.0081C67.4644 32.0081 67.2565 32.0608 67.0846 32.1662C66.9167 32.2717 66.7788 32.4176 66.6709 32.6042C66.567 32.7866 66.491 32.9975 66.443 33.2367C66.3951 33.4719 66.3711 33.7233 66.3711 33.9909Z" fill="black"/>
<path d="M73.7042 35.6391L75.0533 30.7613H76.1506L75.7968 32.6771L74.4477 37.3421H73.5303L73.7042 35.6391ZM73.0207 30.7613L73.986 35.633L74.076 37.3421H72.9967L71.3538 30.7613H73.0207ZM77.3857 35.554L78.3271 30.7613H80L78.3571 37.3421H77.2838L77.3857 35.554ZM76.3005 30.7613L77.6436 35.6026L77.8294 37.3421H76.9061L75.557 32.6832L75.2152 30.7613H76.3005Z" fill="black"/>
<path d="M89.593 68.2578L89.582 68.2598L89.511 68.2948L89.491 68.2988L89.477 68.2948L89.406 68.2598C89.3953 68.2565 89.3873 68.2581 89.382 68.2648L89.378 68.2748L89.361 68.7028L89.366 68.7228L89.376 68.7358L89.48 68.8098L89.495 68.8138L89.507 68.8098L89.611 68.7358L89.623 68.7198L89.627 68.7028L89.61 68.2758C89.6073 68.2651 89.6017 68.2591 89.593 68.2578ZM89.858 68.1448L89.845 68.1468L89.66 68.2398L89.65 68.2498L89.647 68.2608L89.665 68.6908L89.67 68.7028L89.678 68.7098L89.879 68.8028C89.8917 68.8061 89.9013 68.8035 89.908 68.7948L89.912 68.7808L89.878 68.1668C89.8747 68.1548 89.868 68.1475 89.858 68.1448ZM89.143 68.1468C89.1386 68.1441 89.1333 68.1432 89.1283 68.1444C89.1233 68.1455 89.1189 68.1485 89.116 68.1528L89.11 68.1668L89.076 68.7808C89.0767 68.7928 89.0823 68.8008 89.093 68.8048L89.108 68.8028L89.309 68.7098L89.319 68.7018L89.323 68.6908L89.34 68.2608L89.337 68.2488L89.327 68.2388L89.143 68.1468Z" fill="white"/>
<path d="M86.5 46.9998C87.1347 46.9997 87.7457 47.241 88.209 47.6748C88.6724 48.1086 88.9534 48.7024 88.995 49.3358L89 49.4998V54.1048L94.442 54.7098C95.3855 54.8146 96.261 55.2516 96.9119 55.9427C97.5628 56.6337 97.9467 57.5337 97.995 58.4818L98 58.6848V58.9998C98 61.0782 97.1911 63.075 95.7445 64.5675C94.298 66.0599 92.3274 66.9308 90.25 66.9958L90 66.9998H89.326C87.8885 66.9998 86.4775 66.6124 85.2415 65.8784C84.0055 65.1444 82.99 64.091 82.302 62.8288L82.171 62.5778L79.329 56.8938C78.969 56.1738 79.236 55.2108 80.076 54.8658C81.119 54.4388 82.11 54.3588 83.131 54.8778C83.353 54.9911 83.571 55.1291 83.785 55.2918L84 55.4618V49.4998C84 48.8367 84.2634 48.2009 84.7322 47.732C85.2011 47.2632 85.837 46.9998 86.5 46.9998ZM86.5 48.9998C86.383 48.9997 86.2696 49.0408 86.1797 49.1157C86.0898 49.1906 86.0291 49.2947 86.008 49.4098L86 49.4998V57.9998C85.9998 58.2068 85.9354 58.4087 85.8156 58.5776C85.6959 58.7464 85.5266 58.8739 85.3313 58.9425C85.136 59.0111 84.9241 59.0174 84.7251 58.9605C84.526 58.9036 84.3496 58.7863 84.22 58.6248L83.888 58.2178L83.585 57.8638C83.005 57.2068 82.584 56.8438 82.225 56.6608C82.0127 56.5464 81.7708 56.4987 81.531 56.5238L81.39 56.5438L83.96 61.6838C84.4399 62.6433 85.1683 63.4565 86.0694 64.0389C86.9704 64.6212 88.0111 64.9513 89.083 64.9948L89.326 64.9998H90C91.5524 64.9998 93.0444 64.3982 94.1625 63.3213C95.2806 62.2444 95.9378 60.7761 95.996 59.2248L96 58.9998V58.6848C96.0001 58.2201 95.8383 57.7699 95.5425 57.4115C95.2467 57.0531 94.8353 56.8088 94.379 56.7208L94.221 56.6968L88.779 56.0928C88.317 56.0415 87.8872 55.8308 87.5637 55.4971C87.2401 55.1633 87.0429 54.7272 87.006 54.2638L87 54.1048V49.4998C87 49.3672 86.9473 49.24 86.8536 49.1462C86.7598 49.0525 86.6326 48.9998 86.5 48.9998ZM81 50.9998C81.2652 50.9998 81.5196 51.1051 81.7071 51.2927C81.8946 51.4802 82 51.7346 82 51.9998C82 52.265 81.8946 52.5194 81.7071 52.7069C81.5196 52.8944 81.2652 52.9998 81 52.9998H80C79.7348 52.9998 79.4804 52.8944 79.2929 52.7069C79.1054 52.5194 79 52.265 79 51.9998C79 51.7346 79.1054 51.4802 79.2929 51.2927C79.4804 51.1051 79.7348 50.9998 80 50.9998H81ZM93 49.9998C93.2549 50.0001 93.5 50.0977 93.6854 50.2726C93.8707 50.4476 93.9822 50.6867 93.9972 50.9412C94.0121 51.1956 93.9293 51.4462 93.7657 51.6416C93.6021 51.8371 93.3701 51.9627 93.117 51.9928L93 51.9998H92C91.7451 51.9995 91.5 51.9019 91.3146 51.7269C91.1293 51.552 91.0178 51.3128 91.0028 51.0584C90.9879 50.8039 91.0707 50.5534 91.2343 50.358C91.3979 50.1625 91.6299 50.0369 91.883 50.0068L92 49.9998H93ZM81.707 46.2928L82.707 47.2928C82.8892 47.4814 82.99 47.734 82.9877 47.9962C82.9854 48.2584 82.8802 48.5092 82.6948 48.6946C82.5094 48.88 82.2586 48.9852 81.9964 48.9875C81.7342 48.9897 81.4816 48.8889 81.293 48.7068L80.293 47.7068C80.1108 47.5182 80.01 47.2656 80.0123 47.0034C80.0146 46.7412 80.1198 46.4904 80.3052 46.305C80.4906 46.1196 80.7414 46.0144 81.0036 46.0121C81.2658 46.0098 81.5184 46.1106 81.707 46.2928ZM92.707 46.2928C92.8945 46.4803 92.9998 46.7346 92.9998 46.9998C92.9998 47.265 92.8945 47.5193 92.707 47.7068L91.707 48.7068C91.6148 48.8023 91.5044 48.8785 91.3824 48.9309C91.2604 48.9833 91.1292 49.0109 90.9964 49.012C90.8636 49.0132 90.7319 48.9879 90.609 48.9376C90.4861 48.8873 90.3745 48.8131 90.2806 48.7192C90.1867 48.6253 90.1125 48.5136 90.0622 48.3907C90.0119 48.2678 89.9866 48.1362 89.9877 48.0034C89.9889 47.8706 90.0165 47.7394 90.0689 47.6174C90.1213 47.4954 90.1975 47.385 90.293 47.2928L91.293 46.2928C91.4805 46.1053 91.7348 46 92 46C92.2652 46 92.5195 46.1053 92.707 46.2928Z" fill="white"/>
</svg>
