<svg width="115" height="149" viewBox="0 0 115 149" fill="none" xmlns="http://www.w3.org/2000/svg">
<path d="M20 33C20 28.5817 21.8493 25 24.1304 25H91.8696C94.1507 25 96 28.5817 96 33C96 37.4183 94.1507 41 91.8696 41H24.1304C21.8493 41 20 37.4183 20 33Z" fill="white" fill-opacity="0.2"/>
<rect x="1" y="1" width="113" height="147" rx="19" stroke="white" stroke-opacity="0.2" stroke-width="2"/>
<rect x="11.5" y="16.5" width="92" height="121" rx="11.5" stroke="white"/>
<path d="M56.4382 34.3145L55.8841 33.7545C56.3658 33.2684 56.9176 32.8963 57.5394 32.6381C58.1613 32.3795 58.8142 32.2502 59.4981 32.2502C60.1817 32.2502 60.8348 32.3806 61.4573 32.6413C62.0802 32.902 62.6322 33.2751 63.1132 33.7604L62.5591 34.3145C62.1528 33.9083 61.6857 33.5947 61.1578 33.3737C60.6298 33.1527 60.0768 33.042 59.4987 33.0416C58.9205 33.0413 58.3677 33.1519 57.8401 33.3737C57.3125 33.5954 56.8452 33.909 56.4382 34.3145ZM54.1362 32.0125L53.582 31.4583C54.3703 30.666 55.2749 30.0583 56.2958 29.6351C57.3166 29.2119 58.385 29.0002 59.5008 29.0002C60.6167 29.0002 61.6841 29.2119 62.7032 29.6351C63.7233 30.0583 64.6273 30.666 65.4153 31.4583L64.8612 32.0125C64.148 31.2993 63.3288 30.7509 62.4036 30.3674C61.4784 29.9839 60.5101 29.792 59.4987 29.7916C58.4872 29.7913 57.5189 29.9832 56.5937 30.3674C55.6685 30.7516 54.8494 31.3 54.1362 32.0125ZM59.4987 37.375L58.1727 36.0457C58.3482 35.8702 58.5502 35.7353 58.7788 35.6411C59.0074 35.5472 59.247 35.5002 59.4976 35.5002C59.7482 35.5002 59.9881 35.5472 60.2174 35.6411C60.4468 35.735 60.6492 35.8698 60.8247 36.0457L59.4987 37.375Z" fill="white"/>
<g clip-path="url(#clip0_250_5198)">
<path d="M58 69.75C51.7868 69.75 46.75 74.7868 46.75 81C46.75 87.2132 51.7868 92.25 58 92.25C64.2132 92.25 69.25 87.2132 69.25 81C69.25 74.7868 64.2132 69.75 58 69.75ZM64.8943 87.8943C63.1848 89.5987 60.9019 90.6056 58.4906 90.7188C56.0792 90.832 53.7121 90.0434 51.8504 88.5066C49.9888 86.9698 48.7659 84.795 48.4202 82.4059C48.0745 80.0168 48.6306 77.5845 49.9802 75.583C51.3298 73.5815 53.3763 72.1542 55.7208 71.5792C58.0653 71.0041 60.54 71.3226 62.6625 72.4724C64.7851 73.6223 66.4035 75.5212 67.2025 77.7991C68.0014 80.0771 67.9237 82.5709 66.9844 84.7947C66.4949 85.9534 65.785 87.0061 64.8943 87.8943Z" fill="white"/>
<path d="M57.9997 86.9999C59.2926 86.9999 60.5326 86.4863 61.4468 85.5721C62.3611 84.6579 62.8747 83.4179 62.8747 82.1249H53.1247C53.1247 83.4179 53.6383 84.6579 54.5525 85.5721C55.4668 86.4863 56.7067 86.9999 57.9997 86.9999ZM55.6445 79.7011L56.6048 78.5488L53.8747 76.2737L51.1445 78.5488L52.1048 79.7011L53.8747 78.2262L55.6445 79.7011ZM59.3945 78.5488L60.3548 79.7011L62.1247 78.2262L63.8945 79.7011L64.8548 78.5488L62.1247 76.2737L59.3945 78.5488Z" fill="white"/>
</g>
<defs>
<clipPath id="clip0_250_5198">
<rect width="24" height="24" fill="white" transform="translate(46 69)"/>
</clipPath>
</defs>
</svg>
