<svg width="115" height="149" viewBox="0 0 115 149" fill="none" xmlns="http://www.w3.org/2000/svg">
<path d="M20 45C20 42.2386 21.8493 40 24.1304 40H91.8696C94.1507 40 96 42.2386 96 45C96 47.7614 94.1507 50 91.8696 50H24.1304C21.8493 50 20 47.7614 20 45Z" fill="white" fill-opacity="0.2"/>
<path d="M20 59C20 56.2386 21.8493 54 24.1304 54H91.8696C94.1507 54 96 56.2386 96 59C96 61.7614 94.1507 64 91.8696 64H24.1304C21.8493 64 20 61.7614 20 59Z" fill="white" fill-opacity="0.2"/>
<path d="M20 73C20 70.2386 21.8493 68 24.1304 68H91.8696C94.1507 68 96 70.2386 96 73C96 75.7614 94.1507 78 91.8696 78H24.1304C21.8493 78 20 75.7614 20 73Z" fill="white" fill-opacity="0.2"/>
<rect x="1" y="1" width="113" height="147" rx="19" stroke="white" stroke-opacity="0.2" stroke-width="2"/>
<path d="M90.9928 101.675L90.9827 101.68L90.9232 101.732L90.9049 101.741L90.8903 101.741L90.8127 101.726C90.8015 101.725 90.7942 101.729 90.7908 101.737L90.7895 101.747L90.8839 102.165L90.8939 102.183L90.9069 102.193L91.0265 102.238L91.042 102.238L91.0526 102.231L91.1339 102.132L91.1413 102.114L91.1408 102.096L91.0139 101.688C91.0085 101.679 91.0015 101.674 90.9928 101.675ZM91.2195 101.498L91.2075 101.503L91.0528 101.641L91.0458 101.653L91.0457 101.664L91.1744 102.075L91.1823 102.085L91.1919 102.09L91.4101 102.128C91.4232 102.128 91.4318 102.123 91.436 102.112L91.4363 102.098L91.2445 101.514C91.2382 101.503 91.2299 101.498 91.2195 101.498ZM90.5294 101.685C90.5244 101.683 90.5191 101.684 90.5146 101.686C90.51 101.688 90.5065 101.692 90.5049 101.697L90.5027 101.712L90.6288 102.314C90.6325 102.326 90.6401 102.332 90.6514 102.333L90.6654 102.327L90.8355 102.185L90.843 102.175L90.8441 102.163L90.7492 101.744L90.7432 101.733L90.7309 101.726L90.5294 101.685Z" fill="white"/>
<path d="M82.5032 81.9422C83.1163 81.7778 83.7689 81.8528 84.3287 82.1519C84.8886 82.451 85.3137 82.9518 85.5178 83.5528L85.5651 83.7099L86.7569 88.158L92.1701 87.3339C93.1086 87.191 94.0673 87.3865 94.8749 87.8856C95.6825 88.3846 96.2862 89.1545 96.5783 90.0578L96.6357 90.2526L96.7172 90.5569C97.2551 92.5645 96.9906 94.7026 95.9796 96.5186C94.9686 98.3346 93.2906 99.6858 91.3008 100.286L91.0603 100.355L90.4093 100.529C89.0207 100.901 87.5576 100.892 86.1737 100.503C84.7898 100.114 83.5364 99.3594 82.5451 98.3183L82.3536 98.1098L78.1373 93.355C77.6032 92.7527 77.6119 91.7535 78.334 91.2028C79.2309 90.5204 80.1674 90.1866 81.288 90.4237C81.5317 90.4757 81.778 90.5526 82.0268 90.6543L82.2785 90.7629L80.7354 85.004C80.5638 84.3636 80.6537 83.6812 80.9852 83.107C81.3167 82.5328 81.8628 82.1138 82.5032 81.9422ZM83.0208 83.874C82.9078 83.9043 82.8089 83.9732 82.7415 84.0689C82.674 84.1645 82.6423 84.2808 82.6517 84.3974L82.6673 84.4864L84.8673 92.6968C84.9207 92.8968 84.9107 93.1085 84.8387 93.3026C84.7667 93.4967 84.6363 93.6637 84.4653 93.7805C84.2944 93.8973 84.0914 93.9582 83.8844 93.9547C83.6774 93.9512 83.4766 93.8836 83.3097 93.7612L82.8836 93.454L82.4993 93.1905C81.7691 92.706 81.2685 92.4643 80.8743 92.3804C80.6396 92.3249 80.3937 92.3414 80.1685 92.4277L80.0375 92.4835L83.8503 96.7832C84.5622 97.5858 85.4762 98.1828 86.4973 98.5121C87.5183 98.8414 88.609 98.8909 89.6556 98.6555L89.8917 98.5974L90.5427 98.423C92.0422 98.0212 93.3276 97.054 94.1289 95.7244C94.9302 94.3948 95.185 92.8064 94.8397 91.2929L94.7853 91.0745L94.7038 90.7702C94.5836 90.3214 94.3108 89.9283 93.9323 89.6587C93.5538 89.3891 93.0932 89.2597 92.6297 89.2927L92.4709 89.3104L87.058 90.1355C86.5984 90.2055 86.1288 90.1133 85.7299 89.8746C85.3309 89.6359 85.0276 89.2658 84.872 88.8277L84.8251 88.6757L83.6332 84.2276C83.5989 84.0995 83.5151 83.9903 83.4003 83.924C83.2854 83.8577 83.1489 83.8397 83.0208 83.874ZM78.2259 87.2294C78.4821 87.1607 78.755 87.1967 78.9847 87.3293C79.2144 87.4619 79.382 87.6803 79.4506 87.9365C79.5193 88.1927 79.4833 88.4656 79.3507 88.6953C79.2181 88.925 78.9997 89.0926 78.7435 89.1612L77.7776 89.4201C77.5214 89.4887 77.2485 89.4528 77.0188 89.3202C76.7891 89.1875 76.6215 88.9691 76.5529 88.713C76.4842 88.4568 76.5202 88.1838 76.6528 87.9541C76.7854 87.7244 77.0038 87.5568 77.26 87.4882L78.2259 87.2294ZM89.5582 83.1576C89.8045 83.0919 90.0665 83.1228 90.2908 83.2438C90.5151 83.3648 90.6847 83.567 90.765 83.8089C90.8453 84.0508 90.8302 84.3142 90.7228 84.5453C90.6153 84.7765 90.4237 84.9579 90.187 85.0524L90.0758 85.0895L89.1099 85.3483C88.8636 85.414 88.6016 85.3832 88.3773 85.2621C88.153 85.1411 87.9833 84.939 87.903 84.6971C87.8228 84.4552 87.8379 84.1917 87.9453 83.9606C88.0527 83.7295 88.2444 83.5481 88.4811 83.4535L88.5923 83.4165L89.5582 83.1576ZM77.6905 82.4998L78.9153 83.2069C79.14 83.3419 79.3028 83.5598 79.3684 83.8137C79.4341 84.0675 79.3974 84.337 79.2663 84.5641C79.1352 84.7912 78.9202 84.9577 78.6675 85.0277C78.4148 85.0978 78.1448 85.0658 77.9154 84.9387L76.6907 84.2316C76.4659 84.0965 76.3032 83.8786 76.2375 83.6248C76.1719 83.3709 76.2085 83.1015 76.3396 82.8744C76.4707 82.6473 76.6858 82.4808 76.9385 82.4107C77.1911 82.3407 77.4612 82.3727 77.6905 82.4998ZM88.3157 79.6528C88.5453 79.7854 88.7129 80.0038 88.7815 80.2599C88.8501 80.516 88.8142 80.7889 88.6817 81.0186L87.9746 82.2433C87.9102 82.3595 87.8233 82.4616 87.7191 82.5438C87.6148 82.626 87.4952 82.6866 87.3672 82.7221C87.2392 82.7576 87.1055 82.7672 86.9738 82.7505C86.8421 82.7337 86.715 82.6909 86.6 82.6245C86.485 82.5581 86.3844 82.4695 86.304 82.3638C86.2236 82.2581 86.1651 82.1374 86.1319 82.0089C86.0986 81.8803 86.0913 81.7464 86.1103 81.615C86.1294 81.4836 86.1744 81.3573 86.2428 81.2435L86.9499 80.0187C87.0825 79.7891 87.3009 79.6216 87.557 79.553C87.8132 79.4843 88.0861 79.5202 88.3157 79.6528Z" fill="white"/>
<rect x="11.5" y="16.5" width="92" height="121" rx="11.5" stroke="white"/>
<rect x="54.5" y="22.5" width="7" height="7" rx="1.5" stroke="white"/>
</svg>
