<svg width="195" height="195" viewBox="0 0 195 195" fill="none" xmlns="http://www.w3.org/2000/svg">
<g clip-path="url(#clip0_59_20453)">
<path d="M195 0H0V195H195V0Z" fill="white"/>
<path d="M57.9734 10.5405H52.7031V15.8108H57.9734V10.5405Z" fill="black"/>
<path d="M68.5144 10.5405H63.2441V15.8108H68.5144V10.5405Z" fill="black"/>
<path d="M79.0545 10.5405H73.7842V15.8108H79.0545V10.5405Z" fill="black"/>
<path d="M84.325 10.5405H79.0547V15.8108H84.325V10.5405Z" fill="black"/>
<path d="M89.5955 10.5405H84.3252V15.8108H89.5955V10.5405Z" fill="black"/>
<path d="M94.865 10.5405H89.5947V15.8108H94.865V10.5405Z" fill="black"/>
<path d="M100.136 10.5405H94.8652V15.8108H100.136V10.5405Z" fill="black"/>
<path d="M110.677 10.5405H105.406V15.8108H110.677V10.5405Z" fill="black"/>
<path d="M137.027 10.5405H131.757V15.8108H137.027V10.5405Z" fill="black"/>
<path d="M63.2439 15.8108H57.9736V21.0811H63.2439V15.8108Z" fill="black"/>
<path d="M73.7839 15.8108H68.5137V21.0811H73.7839V15.8108Z" fill="black"/>
<path d="M79.0545 15.8108H73.7842V21.0811H79.0545V15.8108Z" fill="black"/>
<path d="M84.325 15.8108H79.0547V21.0811H84.325V15.8108Z" fill="black"/>
<path d="M89.5955 15.8108H84.3252V21.0811H89.5955V15.8108Z" fill="black"/>
<path d="M110.677 15.8108H105.406V21.0811H110.677V15.8108Z" fill="black"/>
<path d="M115.946 15.8108H110.676V21.0811H115.946V15.8108Z" fill="black"/>
<path d="M121.217 15.8108H115.946V21.0811H121.217V15.8108Z" fill="black"/>
<path d="M131.758 15.8108H126.487V21.0811H131.758V15.8108Z" fill="black"/>
<path d="M142.298 15.8108H137.027V21.0811H142.298V15.8108Z" fill="black"/>
<path d="M63.2439 21.0811H57.9736V26.3513H63.2439V21.0811Z" fill="black"/>
<path d="M68.5144 21.0811H63.2441V26.3513H68.5144V21.0811Z" fill="black"/>
<path d="M73.7839 21.0811H68.5137V26.3513H73.7839V21.0811Z" fill="black"/>
<path d="M89.5955 21.0811H84.3252V26.3513H89.5955V21.0811Z" fill="black"/>
<path d="M94.865 21.0811H89.5947V26.3513H94.865V21.0811Z" fill="black"/>
<path d="M100.136 21.0811H94.8652V26.3513H100.136V21.0811Z" fill="black"/>
<path d="M105.406 21.0811H100.136V26.3513H105.406V21.0811Z" fill="black"/>
<path d="M110.677 21.0811H105.406V26.3513H110.677V21.0811Z" fill="black"/>
<path d="M115.946 21.0811H110.676V26.3513H115.946V21.0811Z" fill="black"/>
<path d="M121.217 21.0811H115.946V26.3513H121.217V21.0811Z" fill="black"/>
<path d="M126.487 21.0811H121.217V26.3513H126.487V21.0811Z" fill="black"/>
<path d="M131.758 21.0811H126.487V26.3513H131.758V21.0811Z" fill="black"/>
<path d="M137.027 21.0811H131.757V26.3513H137.027V21.0811Z" fill="black"/>
<path d="M142.298 21.0811H137.027V26.3513H142.298V21.0811Z" fill="black"/>
<path d="M57.9734 26.3513H52.7031V31.6216H57.9734V26.3513Z" fill="black"/>
<path d="M63.2439 26.3513H57.9736V31.6216H63.2439V26.3513Z" fill="black"/>
<path d="M79.0545 26.3513H73.7842V31.6216H79.0545V26.3513Z" fill="black"/>
<path d="M94.865 26.3513H89.5947V31.6216H94.865V26.3513Z" fill="black"/>
<path d="M100.136 26.3513H94.8652V31.6216H100.136V26.3513Z" fill="black"/>
<path d="M105.406 26.3513H100.136V31.6216H105.406V26.3513Z" fill="black"/>
<path d="M115.946 26.3513H110.676V31.6216H115.946V26.3513Z" fill="black"/>
<path d="M126.487 26.3513H121.217V31.6216H126.487V26.3513Z" fill="black"/>
<path d="M131.758 26.3513H126.487V31.6216H131.758V26.3513Z" fill="black"/>
<path d="M137.027 26.3513H131.757V31.6216H137.027V26.3513Z" fill="black"/>
<path d="M142.298 26.3513H137.027V31.6216H142.298V26.3513Z" fill="black"/>
<path d="M57.9734 31.6216H52.7031V36.8919H57.9734V31.6216Z" fill="black"/>
<path d="M68.5144 31.6216H63.2441V36.8919H68.5144V31.6216Z" fill="black"/>
<path d="M79.0545 31.6216H73.7842V36.8919H79.0545V31.6216Z" fill="black"/>
<path d="M84.325 31.6216H79.0547V36.8919H84.325V31.6216Z" fill="black"/>
<path d="M100.136 31.6216H94.8652V36.8919H100.136V31.6216Z" fill="black"/>
<path d="M105.406 31.6216H100.136V36.8919H105.406V31.6216Z" fill="black"/>
<path d="M115.946 31.6216H110.676V36.8919H115.946V31.6216Z" fill="black"/>
<path d="M137.027 31.6216H131.757V36.8919H137.027V31.6216Z" fill="black"/>
<path d="M57.9734 36.8919H52.7031V42.1621H57.9734V36.8919Z" fill="black"/>
<path d="M63.2439 36.8919H57.9736V42.1621H63.2439V36.8919Z" fill="black"/>
<path d="M68.5144 36.8919H63.2441V42.1621H68.5144V36.8919Z" fill="black"/>
<path d="M73.7839 36.8919H68.5137V42.1621H73.7839V36.8919Z" fill="black"/>
<path d="M84.325 36.8919H79.0547V42.1621H84.325V36.8919Z" fill="black"/>
<path d="M94.865 36.8919H89.5947V42.1621H94.865V36.8919Z" fill="black"/>
<path d="M105.406 36.8919H100.136V42.1621H105.406V36.8919Z" fill="black"/>
<path d="M121.217 36.8919H115.946V42.1621H121.217V36.8919Z" fill="black"/>
<path d="M131.758 36.8919H126.487V42.1621H131.758V36.8919Z" fill="black"/>
<path d="M57.9734 42.1621H52.7031V47.4324H57.9734V42.1621Z" fill="black"/>
<path d="M68.5144 42.1621H63.2441V47.4324H68.5144V42.1621Z" fill="black"/>
<path d="M79.0545 42.1621H73.7842V47.4324H79.0545V42.1621Z" fill="black"/>
<path d="M89.5955 42.1621H84.3252V47.4324H89.5955V42.1621Z" fill="black"/>
<path d="M100.136 42.1621H94.8652V47.4324H100.136V42.1621Z" fill="black"/>
<path d="M110.677 42.1621H105.406V47.4324H110.677V42.1621Z" fill="black"/>
<path d="M121.217 42.1621H115.946V47.4324H121.217V42.1621Z" fill="black"/>
<path d="M131.758 42.1621H126.487V47.4324H131.758V42.1621Z" fill="black"/>
<path d="M142.298 42.1621H137.027V47.4324H142.298V42.1621Z" fill="black"/>
<path d="M57.9734 47.4324H52.7031V52.7027H57.9734V47.4324Z" fill="black"/>
<path d="M68.5144 47.4324H63.2441V52.7027H68.5144V47.4324Z" fill="black"/>
<path d="M73.7839 47.4324H68.5137V52.7027H73.7839V47.4324Z" fill="black"/>
<path d="M79.0545 47.4324H73.7842V52.7027H79.0545V47.4324Z" fill="black"/>
<path d="M89.5955 47.4324H84.3252V52.7027H89.5955V47.4324Z" fill="black"/>
<path d="M105.406 47.4324H100.136V52.7027H105.406V47.4324Z" fill="black"/>
<path d="M110.677 47.4324H105.406V52.7027H110.677V47.4324Z" fill="black"/>
<path d="M115.946 47.4324H110.676V52.7027H115.946V47.4324Z" fill="black"/>
<path d="M121.217 47.4324H115.946V52.7027H121.217V47.4324Z" fill="black"/>
<path d="M126.487 47.4324H121.217V52.7027H126.487V47.4324Z" fill="black"/>
<path d="M142.298 47.4324H137.027V52.7027H142.298V47.4324Z" fill="black"/>
<path d="M15.8113 52.7027H10.541V57.973H15.8113V52.7027Z" fill="black"/>
<path d="M36.8923 52.7027H31.6221V57.973H36.8923V52.7027Z" fill="black"/>
<path d="M47.4334 52.7027H42.1631V57.973H47.4334V52.7027Z" fill="black"/>
<path d="M52.7029 52.7027H47.4326V57.973H52.7029V52.7027Z" fill="black"/>
<path d="M57.9734 52.7027H52.7031V57.973H57.9734V52.7027Z" fill="black"/>
<path d="M68.5144 52.7027H63.2441V57.973H68.5144V52.7027Z" fill="black"/>
<path d="M84.325 52.7027H79.0547V57.973H84.325V52.7027Z" fill="black"/>
<path d="M94.865 52.7027H89.5947V57.973H94.865V52.7027Z" fill="black"/>
<path d="M105.406 52.7027H100.136V57.973H105.406V52.7027Z" fill="black"/>
<path d="M121.217 52.7027H115.946V57.973H121.217V52.7027Z" fill="black"/>
<path d="M126.487 52.7027H121.217V57.973H126.487V52.7027Z" fill="black"/>
<path d="M131.758 52.7027H126.487V57.973H131.758V52.7027Z" fill="black"/>
<path d="M137.027 52.7027H131.757V57.973H137.027V52.7027Z" fill="black"/>
<path d="M147.568 52.7027H142.298V57.973H147.568V52.7027Z" fill="black"/>
<path d="M152.839 52.7027H147.568V57.973H152.839V52.7027Z" fill="black"/>
<path d="M158.108 52.7027H152.838V57.973H158.108V52.7027Z" fill="black"/>
<path d="M163.379 52.7027H158.108V57.973H163.379V52.7027Z" fill="black"/>
<path d="M168.649 52.7027H163.379V57.973H168.649V52.7027Z" fill="black"/>
<path d="M184.46 52.7027H179.189V57.973H184.46V52.7027Z" fill="black"/>
<path d="M26.3523 57.973H21.082V63.2432H26.3523V57.973Z" fill="black"/>
<path d="M31.6218 57.973H26.3516V63.2432H31.6218V57.973Z" fill="black"/>
<path d="M36.8923 57.973H31.6221V63.2432H36.8923V57.973Z" fill="black"/>
<path d="M52.7029 57.973H47.4326V63.2432H52.7029V57.973Z" fill="black"/>
<path d="M63.2439 57.973H57.9736V63.2432H63.2439V57.973Z" fill="black"/>
<path d="M68.5144 57.973H63.2441V63.2432H68.5144V57.973Z" fill="black"/>
<path d="M100.136 57.973H94.8652V63.2432H100.136V57.973Z" fill="black"/>
<path d="M105.406 57.973H100.136V63.2432H105.406V57.973Z" fill="black"/>
<path d="M121.217 57.973H115.946V63.2432H121.217V57.973Z" fill="black"/>
<path d="M126.487 57.973H121.217V63.2432H126.487V57.973Z" fill="black"/>
<path d="M137.027 57.973H131.757V63.2432H137.027V57.973Z" fill="black"/>
<path d="M147.568 57.973H142.298V63.2432H147.568V57.973Z" fill="black"/>
<path d="M168.649 57.973H163.379V63.2432H168.649V57.973Z" fill="black"/>
<path d="M173.92 57.973H168.649V63.2432H173.92V57.973Z" fill="black"/>
<path d="M184.46 57.973H179.189V63.2432H184.46V57.973Z" fill="black"/>
<path d="M15.8113 63.2432H10.541V68.5135H15.8113V63.2432Z" fill="black"/>
<path d="M31.6218 63.2432H26.3516V68.5135H31.6218V63.2432Z" fill="black"/>
<path d="M47.4334 63.2432H42.1631V68.5135H47.4334V63.2432Z" fill="black"/>
<path d="M52.7029 63.2432H47.4326V68.5135H52.7029V63.2432Z" fill="black"/>
<path d="M57.9734 63.2432H52.7031V68.5135H57.9734V63.2432Z" fill="black"/>
<path d="M63.2439 63.2432H57.9736V68.5135H63.2439V63.2432Z" fill="black"/>
<path d="M84.325 63.2432H79.0547V68.5135H84.325V63.2432Z" fill="black"/>
<path d="M89.5955 63.2432H84.3252V68.5135H89.5955V63.2432Z" fill="black"/>
<path d="M94.865 63.2432H89.5947V68.5135H94.865V63.2432Z" fill="black"/>
<path d="M110.677 63.2432H105.406V68.5135H110.677V63.2432Z" fill="black"/>
<path d="M121.217 63.2432H115.946V68.5135H121.217V63.2432Z" fill="black"/>
<path d="M137.027 63.2432H131.757V68.5135H137.027V63.2432Z" fill="black"/>
<path d="M152.839 63.2432H147.568V68.5135H152.839V63.2432Z" fill="black"/>
<path d="M168.649 63.2432H163.379V68.5135H168.649V63.2432Z" fill="black"/>
<path d="M179.189 63.2432H173.919V68.5135H179.189V63.2432Z" fill="black"/>
<path d="M15.8113 68.5135H10.541V73.7838H15.8113V68.5135Z" fill="black"/>
<path d="M26.3523 68.5135H21.082V73.7838H26.3523V68.5135Z" fill="black"/>
<path d="M52.7029 68.5135H47.4326V73.7838H52.7029V68.5135Z" fill="black"/>
<path d="M68.5144 68.5135H63.2441V73.7838H68.5144V68.5135Z" fill="black"/>
<path d="M73.7839 68.5135H68.5137V73.7838H73.7839V68.5135Z" fill="black"/>
<path d="M84.325 68.5135H79.0547V73.7838H84.325V68.5135Z" fill="black"/>
<path d="M100.136 68.5135H94.8652V73.7838H100.136V68.5135Z" fill="black"/>
<path d="M121.217 68.5135H115.946V73.7838H121.217V68.5135Z" fill="black"/>
<path d="M131.758 68.5135H126.487V73.7838H131.758V68.5135Z" fill="black"/>
<path d="M142.298 68.5135H137.027V73.7838H142.298V68.5135Z" fill="black"/>
<path d="M147.568 68.5135H142.298V73.7838H147.568V68.5135Z" fill="black"/>
<path d="M179.189 68.5135H173.919V73.7838H179.189V68.5135Z" fill="black"/>
<path d="M21.0818 73.7838H15.8115V79.0541H21.0818V73.7838Z" fill="black"/>
<path d="M31.6218 73.7838H26.3516V79.0541H31.6218V73.7838Z" fill="black"/>
<path d="M42.1628 73.7838H36.8926V79.0541H42.1628V73.7838Z" fill="black"/>
<path d="M47.4334 73.7838H42.1631V79.0541H47.4334V73.7838Z" fill="black"/>
<path d="M57.9734 73.7838H52.7031V79.0541H57.9734V73.7838Z" fill="black"/>
<path d="M68.5144 73.7838H63.2441V79.0541H68.5144V73.7838Z" fill="black"/>
<path d="M73.7839 73.7838H68.5137V79.0541H73.7839V73.7838Z" fill="black"/>
<path d="M79.0545 73.7838H73.7842V79.0541H79.0545V73.7838Z" fill="black"/>
<path d="M84.325 73.7838H79.0547V79.0541H84.325V73.7838Z" fill="black"/>
<path d="M100.136 73.7838H94.8652V79.0541H100.136V73.7838Z" fill="black"/>
<path d="M131.758 73.7838H126.487V79.0541H131.758V73.7838Z" fill="black"/>
<path d="M137.027 73.7838H131.757V79.0541H137.027V73.7838Z" fill="black"/>
<path d="M142.298 73.7838H137.027V79.0541H142.298V73.7838Z" fill="black"/>
<path d="M152.839 73.7838H147.568V79.0541H152.839V73.7838Z" fill="black"/>
<path d="M163.379 73.7838H158.108V79.0541H163.379V73.7838Z" fill="black"/>
<path d="M168.649 73.7838H163.379V79.0541H168.649V73.7838Z" fill="black"/>
<path d="M15.8113 79.054H10.541V84.3243H15.8113V79.054Z" fill="black"/>
<path d="M36.8923 79.054H31.6221V84.3243H36.8923V79.054Z" fill="black"/>
<path d="M57.9734 79.054H52.7031V84.3243H57.9734V79.054Z" fill="black"/>
<path d="M68.5144 79.054H63.2441V84.3243H68.5144V79.054Z" fill="black"/>
<path d="M84.325 79.054H79.0547V84.3243H84.325V79.054Z" fill="black"/>
<path d="M89.5955 79.054H84.3252V84.3243H89.5955V79.054Z" fill="black"/>
<path d="M110.677 79.054H105.406V84.3243H110.677V79.054Z" fill="black"/>
<path d="M115.946 79.054H110.676V84.3243H115.946V79.054Z" fill="black"/>
<path d="M121.217 79.054H115.946V84.3243H121.217V79.054Z" fill="black"/>
<path d="M126.487 79.054H121.217V84.3243H126.487V79.054Z" fill="black"/>
<path d="M137.027 79.054H131.757V84.3243H137.027V79.054Z" fill="black"/>
<path d="M158.108 79.054H152.838V84.3243H158.108V79.054Z" fill="black"/>
<path d="M168.649 79.054H163.379V84.3243H168.649V79.054Z" fill="black"/>
<path d="M173.92 79.054H168.649V84.3243H173.92V79.054Z" fill="black"/>
<path d="M31.6218 84.3243H26.3516V89.5946H31.6218V84.3243Z" fill="black"/>
<path d="M47.4334 84.3243H42.1631V89.5946H47.4334V84.3243Z" fill="black"/>
<path d="M57.9734 84.3243H52.7031V89.5946H57.9734V84.3243Z" fill="black"/>
<path d="M63.2439 84.3243H57.9736V89.5946H63.2439V84.3243Z" fill="black"/>
<path d="M68.5144 84.3243H63.2441V89.5946H68.5144V84.3243Z" fill="black"/>
<path d="M79.0545 84.3243H73.7842V89.5946H79.0545V84.3243Z" fill="black"/>
<path d="M84.325 84.3243H79.0547V89.5946H84.325V84.3243Z" fill="black"/>
<path d="M89.5955 84.3243H84.3252V89.5946H89.5955V84.3243Z" fill="black"/>
<path d="M94.865 84.3243H89.5947V89.5946H94.865V84.3243Z" fill="black"/>
<path d="M121.217 84.3243H115.946V89.5946H121.217V84.3243Z" fill="black"/>
<path d="M126.487 84.3243H121.217V89.5946H126.487V84.3243Z" fill="black"/>
<path d="M137.027 84.3243H131.757V89.5946H137.027V84.3243Z" fill="black"/>
<path d="M147.568 84.3243H142.298V89.5946H147.568V84.3243Z" fill="black"/>
<path d="M152.839 84.3243H147.568V89.5946H152.839V84.3243Z" fill="black"/>
<path d="M163.379 84.3243H158.108V89.5946H163.379V84.3243Z" fill="black"/>
<path d="M179.189 84.3243H173.919V89.5946H179.189V84.3243Z" fill="black"/>
<path d="M21.0818 89.5946H15.8115V94.8648H21.0818V89.5946Z" fill="black"/>
<path d="M26.3523 89.5946H21.082V94.8648H26.3523V89.5946Z" fill="black"/>
<path d="M31.6218 89.5946H26.3516V94.8648H31.6218V89.5946Z" fill="black"/>
<path d="M36.8923 89.5946H31.6221V94.8648H36.8923V89.5946Z" fill="black"/>
<path d="M52.7029 89.5946H47.4326V94.8648H52.7029V89.5946Z" fill="black"/>
<path d="M57.9734 89.5946H52.7031V94.8648H57.9734V89.5946Z" fill="black"/>
<path d="M63.2439 89.5946H57.9736V94.8648H63.2439V89.5946Z" fill="black"/>
<path d="M73.7839 89.5946H68.5137V94.8648H73.7839V89.5946Z" fill="black"/>
<path d="M94.865 89.5946H89.5947V94.8648H94.865V89.5946Z" fill="black"/>
<path d="M100.136 89.5946H94.8652V94.8648H100.136V89.5946Z" fill="black"/>
<path d="M105.406 89.5946H100.136V94.8648H105.406V89.5946Z" fill="black"/>
<path d="M126.487 89.5946H121.217V94.8648H126.487V89.5946Z" fill="black"/>
<path d="M131.758 89.5946H126.487V94.8648H131.758V89.5946Z" fill="black"/>
<path d="M147.568 89.5946H142.298V94.8648H147.568V89.5946Z" fill="black"/>
<path d="M152.839 89.5946H147.568V94.8648H152.839V89.5946Z" fill="black"/>
<path d="M21.0818 94.8648H15.8115V100.135H21.0818V94.8648Z" fill="black"/>
<path d="M26.3523 94.8648H21.082V100.135H26.3523V94.8648Z" fill="black"/>
<path d="M31.6218 94.8648H26.3516V100.135H31.6218V94.8648Z" fill="black"/>
<path d="M47.4334 94.8648H42.1631V100.135H47.4334V94.8648Z" fill="black"/>
<path d="M52.7029 94.8648H47.4326V100.135H52.7029V94.8648Z" fill="black"/>
<path d="M68.5144 94.8648H63.2441V100.135H68.5144V94.8648Z" fill="black"/>
<path d="M105.406 94.8648H100.136V100.135H105.406V94.8648Z" fill="black"/>
<path d="M115.946 94.8648H110.676V100.135H115.946V94.8648Z" fill="black"/>
<path d="M121.217 94.8648H115.946V100.135H121.217V94.8648Z" fill="black"/>
<path d="M126.487 94.8648H121.217V100.135H126.487V94.8648Z" fill="black"/>
<path d="M131.758 94.8648H126.487V100.135H131.758V94.8648Z" fill="black"/>
<path d="M142.298 94.8648H137.027V100.135H142.298V94.8648Z" fill="black"/>
<path d="M152.839 94.8648H147.568V100.135H152.839V94.8648Z" fill="black"/>
<path d="M163.379 94.8648H158.108V100.135H163.379V94.8648Z" fill="black"/>
<path d="M179.189 94.8648H173.919V100.135H179.189V94.8648Z" fill="black"/>
<path d="M15.8113 100.135H10.541V105.405H15.8113V100.135Z" fill="black"/>
<path d="M26.3523 100.135H21.082V105.405H26.3523V100.135Z" fill="black"/>
<path d="M42.1628 100.135H36.8926V105.405H42.1628V100.135Z" fill="black"/>
<path d="M52.7029 100.135H47.4326V105.405H52.7029V100.135Z" fill="black"/>
<path d="M57.9734 100.135H52.7031V105.405H57.9734V100.135Z" fill="black"/>
<path d="M73.7839 100.135H68.5137V105.405H73.7839V100.135Z" fill="black"/>
<path d="M94.865 100.135H89.5947V105.405H94.865V100.135Z" fill="black"/>
<path d="M110.677 100.135H105.406V105.405H110.677V100.135Z" fill="black"/>
<path d="M137.027 100.135H131.757V105.405H137.027V100.135Z" fill="black"/>
<path d="M142.298 100.135H137.027V105.405H142.298V100.135Z" fill="black"/>
<path d="M168.649 100.135H163.379V105.405H168.649V100.135Z" fill="black"/>
<path d="M173.92 100.135H168.649V105.405H173.92V100.135Z" fill="black"/>
<path d="M179.189 100.135H173.919V105.405H179.189V100.135Z" fill="black"/>
<path d="M184.46 100.135H179.189V105.405H184.46V100.135Z" fill="black"/>
<path d="M15.8113 105.405H10.541V110.676H15.8113V105.405Z" fill="black"/>
<path d="M31.6218 105.405H26.3516V110.676H31.6218V105.405Z" fill="black"/>
<path d="M42.1628 105.405H36.8926V110.676H42.1628V105.405Z" fill="black"/>
<path d="M47.4334 105.405H42.1631V110.676H47.4334V105.405Z" fill="black"/>
<path d="M52.7029 105.405H47.4326V110.676H52.7029V105.405Z" fill="black"/>
<path d="M57.9734 105.405H52.7031V110.676H57.9734V105.405Z" fill="black"/>
<path d="M68.5144 105.405H63.2441V110.676H68.5144V105.405Z" fill="black"/>
<path d="M94.865 105.405H89.5947V110.676H94.865V105.405Z" fill="black"/>
<path d="M105.406 105.405H100.136V110.676H105.406V105.405Z" fill="black"/>
<path d="M121.217 105.405H115.946V110.676H121.217V105.405Z" fill="black"/>
<path d="M126.487 105.405H121.217V110.676H126.487V105.405Z" fill="black"/>
<path d="M131.758 105.405H126.487V110.676H131.758V105.405Z" fill="black"/>
<path d="M137.027 105.405H131.757V110.676H137.027V105.405Z" fill="black"/>
<path d="M147.568 105.405H142.298V110.676H147.568V105.405Z" fill="black"/>
<path d="M158.108 105.405H152.838V110.676H158.108V105.405Z" fill="black"/>
<path d="M168.649 105.405H163.379V110.676H168.649V105.405Z" fill="black"/>
<path d="M179.189 105.405H173.919V110.676H179.189V105.405Z" fill="black"/>
<path d="M21.0818 110.676H15.8115V115.946H21.0818V110.676Z" fill="black"/>
<path d="M26.3523 110.676H21.082V115.946H26.3523V110.676Z" fill="black"/>
<path d="M36.8923 110.676H31.6221V115.946H36.8923V110.676Z" fill="black"/>
<path d="M52.7029 110.676H47.4326V115.946H52.7029V110.676Z" fill="black"/>
<path d="M57.9734 110.676H52.7031V115.946H57.9734V110.676Z" fill="black"/>
<path d="M105.406 110.676H100.136V115.946H105.406V110.676Z" fill="black"/>
<path d="M110.677 110.676H105.406V115.946H110.677V110.676Z" fill="black"/>
<path d="M126.487 110.676H121.217V115.946H126.487V110.676Z" fill="black"/>
<path d="M158.108 110.676H152.838V115.946H158.108V110.676Z" fill="black"/>
<path d="M179.189 110.676H173.919V115.946H179.189V110.676Z" fill="black"/>
<path d="M21.0818 115.946H15.8115V121.216H21.0818V115.946Z" fill="black"/>
<path d="M26.3523 115.946H21.082V121.216H26.3523V115.946Z" fill="black"/>
<path d="M36.8923 115.946H31.6221V121.216H36.8923V115.946Z" fill="black"/>
<path d="M42.1628 115.946H36.8926V121.216H42.1628V115.946Z" fill="black"/>
<path d="M47.4334 115.946H42.1631V121.216H47.4334V115.946Z" fill="black"/>
<path d="M52.7029 115.946H47.4326V121.216H52.7029V115.946Z" fill="black"/>
<path d="M57.9734 115.946H52.7031V121.216H57.9734V115.946Z" fill="black"/>
<path d="M89.5955 115.946H84.3252V121.216H89.5955V115.946Z" fill="black"/>
<path d="M94.865 115.946H89.5947V121.216H94.865V115.946Z" fill="black"/>
<path d="M110.677 115.946H105.406V121.216H110.677V115.946Z" fill="black"/>
<path d="M115.946 115.946H110.676V121.216H115.946V115.946Z" fill="black"/>
<path d="M121.217 115.946H115.946V121.216H121.217V115.946Z" fill="black"/>
<path d="M142.298 115.946H137.027V121.216H142.298V115.946Z" fill="black"/>
<path d="M152.839 115.946H147.568V121.216H152.839V115.946Z" fill="black"/>
<path d="M163.379 115.946H158.108V121.216H163.379V115.946Z" fill="black"/>
<path d="M168.649 115.946H163.379V121.216H168.649V115.946Z" fill="black"/>
<path d="M179.189 115.946H173.919V121.216H179.189V115.946Z" fill="black"/>
<path d="M15.8113 121.216H10.541V126.486H15.8113V121.216Z" fill="black"/>
<path d="M21.0818 121.216H15.8115V126.486H21.0818V121.216Z" fill="black"/>
<path d="M36.8923 121.216H31.6221V126.486H36.8923V121.216Z" fill="black"/>
<path d="M42.1628 121.216H36.8926V126.486H42.1628V121.216Z" fill="black"/>
<path d="M63.2439 121.216H57.9736V126.486H63.2439V121.216Z" fill="black"/>
<path d="M68.5144 121.216H63.2441V126.486H68.5144V121.216Z" fill="black"/>
<path d="M100.136 121.216H94.8652V126.486H100.136V121.216Z" fill="black"/>
<path d="M115.946 121.216H110.676V126.486H115.946V121.216Z" fill="black"/>
<path d="M131.758 121.216H126.487V126.486H131.758V121.216Z" fill="black"/>
<path d="M137.027 121.216H131.757V126.486H137.027V121.216Z" fill="black"/>
<path d="M147.568 121.216H142.298V126.486H147.568V121.216Z" fill="black"/>
<path d="M158.108 121.216H152.838V126.486H158.108V121.216Z" fill="black"/>
<path d="M168.649 121.216H163.379V126.486H168.649V121.216Z" fill="black"/>
<path d="M179.189 121.216H173.919V126.486H179.189V121.216Z" fill="black"/>
<path d="M26.3523 126.486H21.082V131.757H26.3523V126.486Z" fill="black"/>
<path d="M42.1628 126.486H36.8926V131.757H42.1628V126.486Z" fill="black"/>
<path d="M47.4334 126.486H42.1631V131.757H47.4334V126.486Z" fill="black"/>
<path d="M52.7029 126.486H47.4326V131.757H52.7029V126.486Z" fill="black"/>
<path d="M57.9734 126.486H52.7031V131.757H57.9734V126.486Z" fill="black"/>
<path d="M63.2439 126.486H57.9736V131.757H63.2439V126.486Z" fill="black"/>
<path d="M84.325 126.486H79.0547V131.757H84.325V126.486Z" fill="black"/>
<path d="M100.136 126.486H94.8652V131.757H100.136V126.486Z" fill="black"/>
<path d="M110.677 126.486H105.406V131.757H110.677V126.486Z" fill="black"/>
<path d="M115.946 126.486H110.676V131.757H115.946V126.486Z" fill="black"/>
<path d="M126.487 126.486H121.217V131.757H126.487V126.486Z" fill="black"/>
<path d="M137.027 126.486H131.757V131.757H137.027V126.486Z" fill="black"/>
<path d="M147.568 126.486H142.298V131.757H147.568V126.486Z" fill="black"/>
<path d="M163.379 126.486H158.108V131.757H163.379V126.486Z" fill="black"/>
<path d="M168.649 126.486H163.379V131.757H168.649V126.486Z" fill="black"/>
<path d="M173.92 126.486H168.649V131.757H173.92V126.486Z" fill="black"/>
<path d="M179.189 126.486H173.919V131.757H179.189V126.486Z" fill="black"/>
<path d="M26.3523 131.757H21.082V137.027H26.3523V131.757Z" fill="black"/>
<path d="M31.6218 131.757H26.3516V137.027H31.6218V131.757Z" fill="black"/>
<path d="M36.8923 131.757H31.6221V137.027H36.8923V131.757Z" fill="black"/>
<path d="M52.7029 131.757H47.4326V137.027H52.7029V131.757Z" fill="black"/>
<path d="M57.9734 131.757H52.7031V137.027H57.9734V131.757Z" fill="black"/>
<path d="M73.7839 131.757H68.5137V137.027H73.7839V131.757Z" fill="black"/>
<path d="M79.0545 131.757H73.7842V137.027H79.0545V131.757Z" fill="black"/>
<path d="M84.325 131.757H79.0547V137.027H84.325V131.757Z" fill="black"/>
<path d="M105.406 131.757H100.136V137.027H105.406V131.757Z" fill="black"/>
<path d="M110.677 131.757H105.406V137.027H110.677V131.757Z" fill="black"/>
<path d="M115.946 131.757H110.676V137.027H115.946V131.757Z" fill="black"/>
<path d="M121.217 131.757H115.946V137.027H121.217V131.757Z" fill="black"/>
<path d="M126.487 131.757H121.217V137.027H126.487V131.757Z" fill="black"/>
<path d="M137.027 131.757H131.757V137.027H137.027V131.757Z" fill="black"/>
<path d="M142.298 131.757H137.027V137.027H142.298V131.757Z" fill="black"/>
<path d="M147.568 131.757H142.298V137.027H147.568V131.757Z" fill="black"/>
<path d="M152.839 131.757H147.568V137.027H152.839V131.757Z" fill="black"/>
<path d="M158.108 131.757H152.838V137.027H158.108V131.757Z" fill="black"/>
<path d="M179.189 131.757H173.919V137.027H179.189V131.757Z" fill="black"/>
<path d="M15.8113 137.027H10.541V142.297H15.8113V137.027Z" fill="black"/>
<path d="M21.0818 137.027H15.8115V142.297H21.0818V137.027Z" fill="black"/>
<path d="M26.3523 137.027H21.082V142.297H26.3523V137.027Z" fill="black"/>
<path d="M36.8923 137.027H31.6221V142.297H36.8923V137.027Z" fill="black"/>
<path d="M47.4334 137.027H42.1631V142.297H47.4334V137.027Z" fill="black"/>
<path d="M52.7029 137.027H47.4326V142.297H52.7029V137.027Z" fill="black"/>
<path d="M63.2439 137.027H57.9736V142.297H63.2439V137.027Z" fill="black"/>
<path d="M68.5144 137.027H63.2441V142.297H68.5144V137.027Z" fill="black"/>
<path d="M79.0545 137.027H73.7842V142.297H79.0545V137.027Z" fill="black"/>
<path d="M89.5955 137.027H84.3252V142.297H89.5955V137.027Z" fill="black"/>
<path d="M94.865 137.027H89.5947V142.297H94.865V137.027Z" fill="black"/>
<path d="M105.406 137.027H100.136V142.297H105.406V137.027Z" fill="black"/>
<path d="M110.677 137.027H105.406V142.297H110.677V137.027Z" fill="black"/>
<path d="M121.217 137.027H115.946V142.297H121.217V137.027Z" fill="black"/>
<path d="M126.487 137.027H121.217V142.297H126.487V137.027Z" fill="black"/>
<path d="M131.758 137.027H126.487V142.297H131.758V137.027Z" fill="black"/>
<path d="M142.298 137.027H137.027V142.297H142.298V137.027Z" fill="black"/>
<path d="M147.568 137.027H142.298V142.297H147.568V137.027Z" fill="black"/>
<path d="M152.839 137.027H147.568V142.297H152.839V137.027Z" fill="black"/>
<path d="M158.108 137.027H152.838V142.297H158.108V137.027Z" fill="black"/>
<path d="M163.379 137.027H158.108V142.297H163.379V137.027Z" fill="black"/>
<path d="M57.9734 142.297H52.7031V147.568H57.9734V142.297Z" fill="black"/>
<path d="M89.5955 142.297H84.3252V147.568H89.5955V142.297Z" fill="black"/>
<path d="M94.865 142.297H89.5947V147.568H94.865V142.297Z" fill="black"/>
<path d="M105.406 142.297H100.136V147.568H105.406V142.297Z" fill="black"/>
<path d="M110.677 142.297H105.406V147.568H110.677V142.297Z" fill="black"/>
<path d="M126.487 142.297H121.217V147.568H126.487V142.297Z" fill="black"/>
<path d="M142.298 142.297H137.027V147.568H142.298V142.297Z" fill="black"/>
<path d="M163.379 142.297H158.108V147.568H163.379V142.297Z" fill="black"/>
<path d="M173.92 142.297H168.649V147.568H173.92V142.297Z" fill="black"/>
<path d="M179.189 142.297H173.919V147.568H179.189V142.297Z" fill="black"/>
<path d="M184.46 142.297H179.189V147.568H184.46V142.297Z" fill="black"/>
<path d="M57.9734 147.568H52.7031V152.838H57.9734V147.568Z" fill="black"/>
<path d="M63.2439 147.568H57.9736V152.838H63.2439V147.568Z" fill="black"/>
<path d="M68.5144 147.568H63.2441V152.838H68.5144V147.568Z" fill="black"/>
<path d="M79.0545 147.568H73.7842V152.838H79.0545V147.568Z" fill="black"/>
<path d="M94.865 147.568H89.5947V152.838H94.865V147.568Z" fill="black"/>
<path d="M110.677 147.568H105.406V152.838H110.677V147.568Z" fill="black"/>
<path d="M142.298 147.568H137.027V152.838H142.298V147.568Z" fill="black"/>
<path d="M152.839 147.568H147.568V152.838H152.839V147.568Z" fill="black"/>
<path d="M163.379 147.568H158.108V152.838H163.379V147.568Z" fill="black"/>
<path d="M168.649 147.568H163.379V152.838H168.649V147.568Z" fill="black"/>
<path d="M179.189 147.568H173.919V152.838H179.189V147.568Z" fill="black"/>
<path d="M89.5955 152.838H84.3252V158.108H89.5955V152.838Z" fill="black"/>
<path d="M100.136 152.838H94.8652V158.108H100.136V152.838Z" fill="black"/>
<path d="M115.946 152.838H110.676V158.108H115.946V152.838Z" fill="black"/>
<path d="M131.758 152.838H126.487V158.108H131.758V152.838Z" fill="black"/>
<path d="M142.298 152.838H137.027V158.108H142.298V152.838Z" fill="black"/>
<path d="M163.379 152.838H158.108V158.108H163.379V152.838Z" fill="black"/>
<path d="M179.189 152.838H173.919V158.108H179.189V152.838Z" fill="black"/>
<path d="M184.46 152.838H179.189V158.108H184.46V152.838Z" fill="black"/>
<path d="M57.9734 158.108H52.7031V163.378H57.9734V158.108Z" fill="black"/>
<path d="M79.0545 158.108H73.7842V163.378H79.0545V158.108Z" fill="black"/>
<path d="M84.325 158.108H79.0547V163.378H84.325V158.108Z" fill="black"/>
<path d="M94.865 158.108H89.5947V163.378H94.865V158.108Z" fill="black"/>
<path d="M100.136 158.108H94.8652V163.378H100.136V158.108Z" fill="black"/>
<path d="M115.946 158.108H110.676V163.378H115.946V158.108Z" fill="black"/>
<path d="M131.758 158.108H126.487V163.378H131.758V158.108Z" fill="black"/>
<path d="M142.298 158.108H137.027V163.378H142.298V158.108Z" fill="black"/>
<path d="M147.568 158.108H142.298V163.378H147.568V158.108Z" fill="black"/>
<path d="M152.839 158.108H147.568V163.378H152.839V158.108Z" fill="black"/>
<path d="M158.108 158.108H152.838V163.378H158.108V158.108Z" fill="black"/>
<path d="M163.379 158.108H158.108V163.378H163.379V158.108Z" fill="black"/>
<path d="M168.649 158.108H163.379V163.378H168.649V158.108Z" fill="black"/>
<path d="M179.189 158.108H173.919V163.378H179.189V158.108Z" fill="black"/>
<path d="M184.46 158.108H179.189V163.378H184.46V158.108Z" fill="black"/>
<path d="M68.5144 163.378H63.2441V168.649H68.5144V163.378Z" fill="black"/>
<path d="M73.7839 163.378H68.5137V168.649H73.7839V163.378Z" fill="black"/>
<path d="M105.406 163.378H100.136V168.649H105.406V163.378Z" fill="black"/>
<path d="M110.677 163.378H105.406V168.649H110.677V163.378Z" fill="black"/>
<path d="M115.946 163.378H110.676V168.649H115.946V163.378Z" fill="black"/>
<path d="M121.217 163.378H115.946V168.649H121.217V163.378Z" fill="black"/>
<path d="M137.027 163.378H131.757V168.649H137.027V163.378Z" fill="black"/>
<path d="M142.298 163.378H137.027V168.649H142.298V163.378Z" fill="black"/>
<path d="M152.839 163.378H147.568V168.649H152.839V163.378Z" fill="black"/>
<path d="M158.108 163.378H152.838V168.649H158.108V163.378Z" fill="black"/>
<path d="M163.379 163.378H158.108V168.649H163.379V163.378Z" fill="black"/>
<path d="M168.649 163.378H163.379V168.649H168.649V163.378Z" fill="black"/>
<path d="M179.189 163.378H173.919V168.649H179.189V163.378Z" fill="black"/>
<path d="M63.2439 168.649H57.9736V173.919H63.2439V168.649Z" fill="black"/>
<path d="M89.5955 168.649H84.3252V173.919H89.5955V168.649Z" fill="black"/>
<path d="M94.865 168.649H89.5947V173.919H94.865V168.649Z" fill="black"/>
<path d="M110.677 168.649H105.406V173.919H110.677V168.649Z" fill="black"/>
<path d="M121.217 168.649H115.946V173.919H121.217V168.649Z" fill="black"/>
<path d="M152.839 168.649H147.568V173.919H152.839V168.649Z" fill="black"/>
<path d="M158.108 168.649H152.838V173.919H158.108V168.649Z" fill="black"/>
<path d="M163.379 168.649H158.108V173.919H163.379V168.649Z" fill="black"/>
<path d="M168.649 168.649H163.379V173.919H168.649V168.649Z" fill="black"/>
<path d="M79.0545 173.919H73.7842V179.189H79.0545V173.919Z" fill="black"/>
<path d="M89.5955 173.919H84.3252V179.189H89.5955V173.919Z" fill="black"/>
<path d="M94.865 173.919H89.5947V179.189H94.865V173.919Z" fill="black"/>
<path d="M100.136 173.919H94.8652V179.189H100.136V173.919Z" fill="black"/>
<path d="M105.406 173.919H100.136V179.189H105.406V173.919Z" fill="black"/>
<path d="M110.677 173.919H105.406V179.189H110.677V173.919Z" fill="black"/>
<path d="M126.487 173.919H121.217V179.189H126.487V173.919Z" fill="black"/>
<path d="M137.027 173.919H131.757V179.189H137.027V173.919Z" fill="black"/>
<path d="M142.298 173.919H137.027V179.189H142.298V173.919Z" fill="black"/>
<path d="M147.568 173.919H142.298V179.189H147.568V173.919Z" fill="black"/>
<path d="M57.9734 179.189H52.7031V184.459H57.9734V179.189Z" fill="black"/>
<path d="M68.5144 179.189H63.2441V184.459H68.5144V179.189Z" fill="black"/>
<path d="M84.325 179.189H79.0547V184.459H84.325V179.189Z" fill="black"/>
<path d="M105.406 179.189H100.136V184.459H105.406V179.189Z" fill="black"/>
<path d="M115.946 179.189H110.676V184.459H115.946V179.189Z" fill="black"/>
<path d="M126.487 179.189H121.217V184.459H126.487V179.189Z" fill="black"/>
<path d="M131.758 179.189H126.487V184.459H131.758V179.189Z" fill="black"/>
<path d="M137.027 179.189H131.757V184.459H137.027V179.189Z" fill="black"/>
<path d="M142.298 179.189H137.027V184.459H142.298V179.189Z" fill="black"/>
<path d="M152.839 179.189H147.568V184.459H152.839V179.189Z" fill="black"/>
<path d="M184.46 179.189H179.189V184.459H184.46V179.189Z" fill="black"/>
<path d="M41.8991 10.5405H16.0748H10.541V16.0743V41.8986V47.4324H16.0748H41.8991H47.4329V41.8986V16.0743V10.5405H41.8991ZM41.8991 41.8986H16.0748V16.0743H41.8991V41.8986Z" fill="black"/>
<path d="M178.926 10.5405H153.102H147.568V16.0743V41.8986V47.4324H153.102H178.926H184.46V41.8986V16.0743V10.5405H178.926ZM178.926 41.8986H153.102V16.0743H178.926V41.8986Z" fill="black"/>
<path d="M41.8991 147.568H16.0748H10.541V153.101V178.926V184.459H16.0748H41.8991H47.4329V178.926V153.101V147.568H41.8991ZM41.8991 178.926H16.0748V153.101H41.8991V178.926Z" fill="black"/>
<path d="M36.8928 21.0811H21.082V36.8919H36.8928V21.0811Z" fill="black"/>
<path d="M173.919 21.0811H158.108V36.8919H173.919V21.0811Z" fill="black"/>
<path d="M36.8928 158.108H21.082V173.919H36.8928V158.108Z" fill="black"/>
</g>
<defs>
<clipPath id="clip0_59_20453">
<rect width="195" height="195" fill="white"/>
</clipPath>
</defs>
</svg>
