<svg width="26" height="45" viewBox="0 0 26 45" fill="none" xmlns="http://www.w3.org/2000/svg">
<path d="M0.555542 9.87778H25.4444V34.7667H0.555542V9.87778Z" fill="url(#paint0_linear_232_926)"/>
<path d="M13 6.32222C13 5.73312 13.4776 5.25556 14.0667 5.25556C14.6558 5.25556 15.1333 5.73312 15.1333 6.32222V7.56667C15.1333 8.15577 14.6558 8.63333 14.0667 8.63333C13.4776 8.63333 13 8.15577 13 7.56667V6.32222Z" fill="url(#paint1_linear_232_926)"/>
<path d="M13 37.0778C13 36.4887 12.5224 36.0111 11.9333 36.0111C11.3442 36.0111 10.8667 36.4887 10.8667 37.0778V38.3222C10.8667 38.9113 11.3442 39.3889 11.9333 39.3889C12.5224 39.3889 13 38.9113 13 38.3222V37.0778Z" fill="url(#paint2_linear_232_926)"/>
<path d="M17.9778 2.76667C17.9778 2.17756 18.4553 1.7 19.0444 1.7C19.6335 1.7 20.1111 2.17756 20.1111 2.76667V7.56667C20.1111 8.15577 19.6335 8.63333 19.0444 8.63333C18.4553 8.63333 17.9778 8.15577 17.9778 7.56667V2.76667Z" fill="url(#paint3_linear_232_926)"/>
<path d="M8.02221 37.0778C8.02221 36.4887 7.54465 36.0111 6.95554 36.0111C6.36644 36.0111 5.88888 36.4887 5.88888 37.0778V41.8778C5.88888 42.4669 6.36644 42.9444 6.95554 42.9444C7.54465 42.9444 8.02221 42.4669 8.02221 41.8778V37.0778Z" fill="url(#paint4_linear_232_926)"/>
<path d="M22.9555 1.16667C22.9555 0.577563 23.4331 0.1 24.0222 0.1C24.6113 0.1 25.0889 0.577563 25.0889 1.16667V7.56667C25.0889 8.15577 24.6113 8.63333 24.0222 8.63333C23.4331 8.63333 22.9555 8.15577 22.9555 7.56667V1.16667Z" fill="url(#paint5_linear_232_926)"/>
<path d="M3.04443 37.0778C3.04443 36.4887 2.56687 36.0111 1.97776 36.0111C1.38866 36.0111 0.911098 36.4887 0.911098 37.0778V43.4778C0.911098 44.0669 1.38866 44.5444 1.97776 44.5444C2.56687 44.5444 3.04443 44.0669 3.04443 43.4778V37.0778Z" fill="url(#paint6_linear_232_926)"/>
<defs>
<linearGradient id="paint0_linear_232_926" x1="0.555542" y1="22.3222" x2="25.4444" y2="22.3222" gradientUnits="userSpaceOnUse">
<stop stop-color="#27A6E1"/>
<stop offset="1" stop-color="#4381EB"/>
</linearGradient>
<linearGradient id="paint1_linear_232_926" x1="0.555542" y1="22.3222" x2="25.4444" y2="22.3222" gradientUnits="userSpaceOnUse">
<stop stop-color="#27A6E1"/>
<stop offset="1" stop-color="#4381EB"/>
</linearGradient>
<linearGradient id="paint2_linear_232_926" x1="0.555542" y1="22.3222" x2="25.4444" y2="22.3222" gradientUnits="userSpaceOnUse">
<stop stop-color="#27A6E1"/>
<stop offset="1" stop-color="#4381EB"/>
</linearGradient>
<linearGradient id="paint3_linear_232_926" x1="0.555542" y1="22.3222" x2="25.4444" y2="22.3222" gradientUnits="userSpaceOnUse">
<stop stop-color="#27A6E1"/>
<stop offset="1" stop-color="#4381EB"/>
</linearGradient>
<linearGradient id="paint4_linear_232_926" x1="0.555542" y1="22.3222" x2="25.4444" y2="22.3222" gradientUnits="userSpaceOnUse">
<stop stop-color="#27A6E1"/>
<stop offset="1" stop-color="#4381EB"/>
</linearGradient>
<linearGradient id="paint5_linear_232_926" x1="0.555542" y1="22.3222" x2="25.4444" y2="22.3222" gradientUnits="userSpaceOnUse">
<stop stop-color="#27A6E1"/>
<stop offset="1" stop-color="#4381EB"/>
</linearGradient>
<linearGradient id="paint6_linear_232_926" x1="0.555542" y1="22.3222" x2="25.4444" y2="22.3222" gradientUnits="userSpaceOnUse">
<stop stop-color="#27A6E1"/>
<stop offset="1" stop-color="#4381EB"/>
</linearGradient>
</defs>
</svg>
