<svg width="24" height="24" viewBox="0 0 24 24" fill="none" xmlns="http://www.w3.org/2000/svg">
<path fill-rule="evenodd" clip-rule="evenodd" d="M10.975 3.00201C11.0336 3.26059 10.987 3.53183 10.8457 3.75611C10.7043 3.98038 10.4796 4.13933 10.221 4.19801C10.0248 4.24266 9.83035 4.2947 9.63804 4.35401C9.51257 4.39275 9.38069 4.4064 9.24994 4.39417C9.11918 4.38194 8.99212 4.34408 8.876 4.28275C8.75988 4.22141 8.65698 4.13781 8.57317 4.03671C8.48936 3.93561 8.42628 3.81899 8.38754 3.69351C8.3488 3.56803 8.33516 3.43615 8.34739 3.3054C8.35961 3.17465 8.39747 3.04759 8.45881 2.93147C8.52014 2.81535 8.60374 2.71244 8.70485 2.62864C8.80595 2.54483 8.92257 2.48175 9.04805 2.44301C9.28804 2.36834 9.53138 2.30334 9.77804 2.24801C9.90615 2.21888 10.0387 2.21527 10.1682 2.2374C10.2977 2.25953 10.4216 2.30697 10.5328 2.37699C10.6439 2.44701 10.7402 2.53825 10.8161 2.64549C10.892 2.75274 10.946 2.87388 10.975 3.00201ZM13.025 3.00201C13.0837 2.74346 13.2427 2.51879 13.4669 2.3774C13.6912 2.23601 13.9625 2.18947 14.221 2.24801C18.675 3.25801 22.001 7.24001 22.001 12C22.001 17.523 17.523 22 12.001 22C7.24005 22 3.25804 18.675 2.24804 14.221C2.1962 13.965 2.2466 13.6989 2.38845 13.4795C2.5303 13.2602 2.75234 13.105 3.00709 13.0473C3.26185 12.9895 3.52908 13.0338 3.75164 13.1705C3.97421 13.3073 4.13443 13.5257 4.19804 13.779C4.51626 15.1728 5.20215 16.4558 6.18434 17.4946C7.16654 18.5334 8.40916 19.29 9.78292 19.6857C11.1567 20.0814 12.6114 20.1018 13.9957 19.7447C15.38 19.3876 16.6433 18.6661 17.6542 17.6552C18.6651 16.6443 19.3866 15.381 19.7437 13.9967C20.1008 12.6124 20.0805 11.1576 19.6848 9.78389C19.289 8.41013 18.5324 7.16751 17.4936 6.18531C16.4548 5.20311 15.1718 4.51723 13.778 4.19901C13.5195 4.14012 13.2949 3.98093 13.1537 3.75645C13.0124 3.53197 12.9662 3.2606 13.025 3.00201ZM6.61404 4.72001C6.70348 4.8163 6.77305 4.92927 6.81879 5.05247C6.86453 5.17567 6.88554 5.30667 6.88062 5.438C6.8757 5.56932 6.84494 5.69838 6.79011 5.81781C6.73527 5.93724 6.65743 6.04469 6.56104 6.13401C6.41304 6.27068 6.27071 6.41268 6.13404 6.56001C5.95238 6.74903 5.70376 6.85915 5.44171 6.86667C5.17965 6.87419 4.92513 6.77849 4.73293 6.6002C4.54074 6.4219 4.42625 6.17526 4.41411 5.91337C4.40197 5.65149 4.49316 5.39532 4.66805 5.20001C4.83805 5.01601 5.01538 4.83834 5.20004 4.66701C5.29633 4.57758 5.40931 4.508 5.53251 4.46226C5.6557 4.41652 5.78671 4.39551 5.91803 4.40043C6.04935 4.40536 6.17842 4.43611 6.29784 4.49095C6.41727 4.54578 6.52472 4.62362 6.61404 4.72001ZM12 6.00001C12.2653 6.00001 12.5196 6.10537 12.7072 6.2929C12.8947 6.48044 13 6.73479 13 7.00001V11.586L15.707 14.293C15.8892 14.4816 15.99 14.7342 15.9877 14.9964C15.9854 15.2586 15.8803 15.5094 15.6949 15.6948C15.5095 15.8802 15.2586 15.9854 14.9964 15.9877C14.7342 15.99 14.4816 15.8892 14.293 15.707L11.293 12.707C11.1055 12.5195 11.0001 12.2652 11 12V7.00001C11 6.73479 11.1054 6.48044 11.2929 6.2929C11.4805 6.10537 11.7348 6.00001 12 6.00001ZM3.69304 8.38801C3.94644 8.46615 4.15842 8.64173 4.28238 8.87614C4.40633 9.11055 4.43211 9.3846 4.35404 9.63801C4.29473 9.83031 4.24269 10.0248 4.19804 10.221C4.13443 10.4744 3.97421 10.6928 3.75164 10.8295C3.52908 10.9662 3.26185 11.0105 3.00709 10.9527C2.75234 10.895 2.5303 10.7399 2.38845 10.5205C2.2466 10.3012 2.1962 10.035 2.24804 9.77901C2.30404 9.53234 2.36904 9.28901 2.44304 9.04901C2.52118 8.79562 2.69677 8.58364 2.93118 8.45968C3.16559 8.33572 3.43963 8.30994 3.69304 8.38801Z" fill="white"/>
</svg>
