<svg width="24" height="24" viewBox="0 0 24 24" fill="none" xmlns="http://www.w3.org/2000/svg">
<path d="M12 21.1429C17.0495 21.1429 21.1429 17.0495 21.1429 12C21.1429 6.95054 17.0495 2.85715 12 2.85715C6.95057 2.85715 2.85718 6.95054 2.85718 12C2.85718 17.0495 6.95057 21.1429 12 21.1429Z" stroke="white" stroke-width="1.5" stroke-linecap="round" stroke-linejoin="round"/>
<path d="M12 16.5714C14.5247 16.5714 16.5714 14.5247 16.5714 12C16.5714 9.47529 14.5247 7.42859 12 7.42859C9.47529 7.42859 7.42859 9.47529 7.42859 12C7.42859 14.5247 9.47529 16.5714 12 16.5714Z" stroke="white" stroke-width="1.5" stroke-linecap="round" stroke-linejoin="round"/>
<path d="M15.4286 8.57144L18.2858 5.71429M15.4286 15.4286L18.2858 18.2857M8.5715 15.4286L5.71436 18.2857M8.5715 8.57144L5.71436 5.71429" stroke="white" stroke-width="1.5" stroke-linecap="round" stroke-linejoin="round"/>
</svg>
