<svg width="32" height="32" viewBox="0 0 32 32" fill="none" xmlns="http://www.w3.org/2000/svg">
<path d="M29.3332 13.3333V22.6667C29.3332 23.7275 28.9117 24.7449 28.1616 25.4951C27.4115 26.2452 26.394 26.6667 25.3332 26.6667H6.6665C5.60564 26.6667 4.58822 26.2452 3.83808 25.4951C3.08793 24.7449 2.6665 23.7275 2.6665 22.6667V13.3333H29.3332ZM23.9998 18.6667H19.9998C19.6462 18.6667 19.3071 18.8071 19.057 19.0572C18.807 19.3072 18.6665 19.6464 18.6665 20C18.6665 20.3536 18.807 20.6928 19.057 20.9428C19.3071 21.1929 19.6462 21.3333 19.9998 21.3333H23.9998C24.3535 21.3333 24.6926 21.1929 24.9426 20.9428C25.1927 20.6928 25.3332 20.3536 25.3332 20C25.3332 19.6464 25.1927 19.3072 24.9426 19.0572C24.6926 18.8071 24.3535 18.6667 23.9998 18.6667ZM25.3332 5.33333C26.394 5.33333 27.4115 5.75476 28.1616 6.5049C28.9117 7.25505 29.3332 8.27246 29.3332 9.33333V10.6667H2.6665V9.33333C2.6665 8.27246 3.08793 7.25505 3.83808 6.5049C4.58822 5.75476 5.60564 5.33333 6.6665 5.33333H25.3332Z" fill="white"/>
</svg>
